<svg xmlns="http://www.w3.org/2000/svg" xmlns:xlink="http://www.w3.org/1999/xlink" width="500" zoomAndPan="magnify" viewBox="0 0 375 74.999997" height="100" preserveAspectRatio="xMidYMid meet" version="1.0"><defs><g/><clipPath id="dce6952a40"><path d="M 290.714844 26.816406 L 322.964844 26.816406 L 322.964844 59 L 290.714844 59 Z M 290.714844 26.816406 " clip-rule="nonzero"/></clipPath></defs><g fill="#000000" fill-opacity="1"><g transform="translate(42.064761, 51.749995)"><g><path d="M 15.390625 -22.703125 C 17.085938 -22.703125 18.597656 -22.332031 19.921875 -21.59375 C 21.242188 -20.851562 22.273438 -19.757812 23.015625 -18.3125 C 23.753906 -16.875 24.125 -15.144531 24.125 -13.125 L 24.125 0 L 18.46875 0 L 18.46875 -12.359375 C 18.46875 -14.140625 18.019531 -15.507812 17.125 -16.46875 C 16.238281 -17.425781 15.03125 -17.90625 13.5 -17.90625 C 11.9375 -17.90625 10.703125 -17.425781 9.796875 -16.46875 C 8.890625 -15.507812 8.4375 -14.140625 8.4375 -12.359375 L 8.4375 0 L 2.78125 0 L 2.78125 -29.90625 L 8.4375 -29.90625 L 8.4375 -19.59375 C 9.164062 -20.5625 10.132812 -21.320312 11.34375 -21.875 C 12.5625 -22.425781 13.910156 -22.703125 15.390625 -22.703125 Z M 15.390625 -22.703125 "/></g></g></g><g fill="#000000" fill-opacity="1"><g transform="translate(67.755389, 51.749995)"><g><path d="M 24.203125 -22.390625 L 10.34375 10.59375 L 4.328125 10.59375 L 9.171875 -0.5625 L 0.203125 -22.390625 L 6.546875 -22.390625 L 12.328125 -6.75 L 18.1875 -22.390625 Z M 24.203125 -22.390625 "/></g></g></g><g fill="#000000" fill-opacity="1"><g transform="translate(91.183921, 51.749995)"><g><path d="M 8.4375 -19.15625 C 9.164062 -20.175781 10.171875 -21.03125 11.453125 -21.71875 C 12.734375 -22.40625 14.195312 -22.75 15.84375 -22.75 C 17.75 -22.75 19.476562 -22.273438 21.03125 -21.328125 C 22.582031 -20.390625 23.804688 -19.050781 24.703125 -17.3125 C 25.609375 -15.570312 26.0625 -13.554688 26.0625 -11.265625 C 26.0625 -8.984375 25.609375 -6.957031 24.703125 -5.1875 C 23.804688 -3.425781 22.582031 -2.0625 21.03125 -1.09375 C 19.476562 -0.125 17.75 0.359375 15.84375 0.359375 C 14.195312 0.359375 12.742188 0.0234375 11.484375 -0.640625 C 10.234375 -1.316406 9.21875 -2.164062 8.4375 -3.1875 L 8.4375 10.671875 L 2.78125 10.671875 L 2.78125 -22.390625 L 8.4375 -22.390625 Z M 20.28125 -11.265625 C 20.28125 -12.617188 20.003906 -13.785156 19.453125 -14.765625 C 18.898438 -15.753906 18.171875 -16.503906 17.265625 -17.015625 C 16.367188 -17.523438 15.394531 -17.78125 14.34375 -17.78125 C 13.320312 -17.78125 12.359375 -17.515625 11.453125 -16.984375 C 10.546875 -16.460938 9.816406 -15.703125 9.265625 -14.703125 C 8.710938 -13.710938 8.4375 -12.539062 8.4375 -11.1875 C 8.4375 -9.84375 8.710938 -8.671875 9.265625 -7.671875 C 9.816406 -6.679688 10.546875 -5.921875 11.453125 -5.390625 C 12.359375 -4.867188 13.320312 -4.609375 14.34375 -4.609375 C 15.394531 -4.609375 16.367188 -4.875 17.265625 -5.40625 C 18.171875 -5.945312 18.898438 -6.71875 19.453125 -7.71875 C 20.003906 -8.71875 20.28125 -9.898438 20.28125 -11.265625 Z M 20.28125 -11.265625 "/></g></g></g><g fill="#000000" fill-opacity="1"><g transform="translate(117.561262, 51.749995)"><g><path d="M 23.59375 -11.671875 C 23.59375 -10.867188 23.539062 -10.144531 23.4375 -9.5 L 7.078125 -9.5 C 7.203125 -7.882812 7.765625 -6.617188 8.765625 -5.703125 C 9.765625 -4.785156 10.988281 -4.328125 12.4375 -4.328125 C 14.539062 -4.328125 16.039062 -5.226562 16.9375 -7.03125 L 23.03125 -7.03125 C 22.382812 -4.875 21.144531 -3.101562 19.3125 -1.71875 C 17.476562 -0.332031 15.226562 0.359375 12.5625 0.359375 C 10.40625 0.359375 8.472656 -0.113281 6.765625 -1.0625 C 5.054688 -2.019531 3.722656 -3.375 2.765625 -5.125 C 1.804688 -6.882812 1.328125 -8.90625 1.328125 -11.1875 C 1.328125 -13.507812 1.796875 -15.546875 2.734375 -17.296875 C 3.679688 -19.046875 5.003906 -20.390625 6.703125 -21.328125 C 8.398438 -22.273438 10.351562 -22.75 12.5625 -22.75 C 14.695312 -22.75 16.601562 -22.289062 18.28125 -21.375 C 19.96875 -20.457031 21.273438 -19.15625 22.203125 -17.46875 C 23.128906 -15.789062 23.59375 -13.859375 23.59375 -11.671875 Z M 17.734375 -13.296875 C 17.710938 -14.742188 17.1875 -15.90625 16.15625 -16.78125 C 15.132812 -17.664062 13.882812 -18.109375 12.40625 -18.109375 C 11 -18.109375 9.816406 -17.679688 8.859375 -16.828125 C 7.910156 -15.984375 7.328125 -14.804688 7.109375 -13.296875 Z M 17.734375 -13.296875 "/></g></g></g><g fill="#000000" fill-opacity="1"><g transform="translate(141.474531, 51.749995)"><g><path d="M 8.4375 -18.90625 C 9.164062 -20.09375 10.113281 -21.019531 11.28125 -21.6875 C 12.457031 -22.363281 13.800781 -22.703125 15.3125 -22.703125 L 15.3125 -16.765625 L 13.8125 -16.765625 C 12.039062 -16.765625 10.703125 -16.347656 9.796875 -15.515625 C 8.890625 -14.679688 8.4375 -13.226562 8.4375 -11.15625 L 8.4375 0 L 2.78125 0 L 2.78125 -22.390625 L 8.4375 -22.390625 Z M 8.4375 -18.90625 "/></g></g></g><g fill="#000000" fill-opacity="1"><g transform="translate(156.783749, 51.749995)"><g><path d="M 15.1875 -22.703125 C 17.851562 -22.703125 20.007812 -21.859375 21.65625 -20.171875 C 23.300781 -18.492188 24.125 -16.144531 24.125 -13.125 L 24.125 0 L 18.46875 0 L 18.46875 -12.359375 C 18.46875 -14.140625 18.019531 -15.507812 17.125 -16.46875 C 16.238281 -17.425781 15.03125 -17.90625 13.5 -17.90625 C 11.9375 -17.90625 10.703125 -17.425781 9.796875 -16.46875 C 8.890625 -15.507812 8.4375 -14.140625 8.4375 -12.359375 L 8.4375 0 L 2.78125 0 L 2.78125 -22.390625 L 8.4375 -22.390625 L 8.4375 -19.59375 C 9.195312 -20.5625 10.160156 -21.320312 11.328125 -21.875 C 12.503906 -22.425781 13.789062 -22.703125 15.1875 -22.703125 Z M 15.1875 -22.703125 "/></g></g></g><g fill="#000000" fill-opacity="1"><g transform="translate(182.474371, 51.749995)"><g><path d="M 12.734375 0.359375 C 10.578125 0.359375 8.632812 -0.113281 6.90625 -1.0625 C 5.1875 -2.019531 3.832031 -3.375 2.84375 -5.125 C 1.863281 -6.882812 1.375 -8.90625 1.375 -11.1875 C 1.375 -13.476562 1.878906 -15.5 2.890625 -17.25 C 3.898438 -19 5.28125 -20.351562 7.03125 -21.3125 C 8.78125 -22.269531 10.734375 -22.75 12.890625 -22.75 C 15.046875 -22.75 17 -22.269531 18.75 -21.3125 C 20.5 -20.351562 21.878906 -19 22.890625 -17.25 C 23.898438 -15.5 24.40625 -13.476562 24.40625 -11.1875 C 24.40625 -8.90625 23.882812 -6.882812 22.84375 -5.125 C 21.8125 -3.375 20.410156 -2.019531 18.640625 -1.0625 C 16.878906 -0.113281 14.910156 0.359375 12.734375 0.359375 Z M 12.734375 -4.5625 C 13.753906 -4.5625 14.710938 -4.8125 15.609375 -5.3125 C 16.515625 -5.8125 17.238281 -6.554688 17.78125 -7.546875 C 18.320312 -8.546875 18.59375 -9.757812 18.59375 -11.1875 C 18.59375 -13.320312 18.03125 -14.957031 16.90625 -16.09375 C 15.789062 -17.238281 14.425781 -17.8125 12.8125 -17.8125 C 11.195312 -17.8125 9.84375 -17.238281 8.75 -16.09375 C 7.65625 -14.957031 7.109375 -13.320312 7.109375 -11.1875 C 7.109375 -9.0625 7.640625 -7.425781 8.703125 -6.28125 C 9.765625 -5.132812 11.109375 -4.5625 12.734375 -4.5625 Z M 12.734375 -4.5625 "/></g></g></g><g fill="#000000" fill-opacity="1"><g transform="translate(207.235928, 51.749995)"><g><path d="M 1.328125 -11.265625 C 1.328125 -13.535156 1.78125 -15.546875 2.6875 -17.296875 C 3.59375 -19.046875 4.828125 -20.390625 6.390625 -21.328125 C 7.953125 -22.273438 9.6875 -22.75 11.59375 -22.75 C 13.050781 -22.75 14.4375 -22.429688 15.75 -21.796875 C 17.070312 -21.160156 18.125 -20.320312 18.90625 -19.28125 L 18.90625 -29.90625 L 24.640625 -29.90625 L 24.640625 0 L 18.90625 0 L 18.90625 -3.3125 C 18.207031 -2.207031 17.222656 -1.316406 15.953125 -0.640625 C 14.691406 0.0234375 13.226562 0.359375 11.5625 0.359375 C 9.675781 0.359375 7.953125 -0.125 6.390625 -1.09375 C 4.828125 -2.0625 3.59375 -3.425781 2.6875 -5.1875 C 1.78125 -6.957031 1.328125 -8.984375 1.328125 -11.265625 Z M 18.953125 -11.1875 C 18.953125 -12.5625 18.679688 -13.738281 18.140625 -14.71875 C 17.597656 -15.707031 16.867188 -16.460938 15.953125 -16.984375 C 15.046875 -17.515625 14.066406 -17.78125 13.015625 -17.78125 C 11.960938 -17.78125 10.988281 -17.523438 10.09375 -17.015625 C 9.207031 -16.503906 8.488281 -15.753906 7.9375 -14.765625 C 7.382812 -13.785156 7.109375 -12.617188 7.109375 -11.265625 C 7.109375 -9.921875 7.382812 -8.742188 7.9375 -7.734375 C 8.488281 -6.722656 9.210938 -5.945312 10.109375 -5.40625 C 11.015625 -4.875 11.984375 -4.609375 13.015625 -4.609375 C 14.066406 -4.609375 15.046875 -4.867188 15.953125 -5.390625 C 16.867188 -5.921875 17.597656 -6.675781 18.140625 -7.65625 C 18.679688 -8.632812 18.953125 -9.8125 18.953125 -11.1875 Z M 18.953125 -11.1875 "/></g></g></g><g fill="#000000" fill-opacity="1"><g transform="translate(233.613275, 51.749995)"><g><path d="M 23.59375 -11.671875 C 23.59375 -10.867188 23.539062 -10.144531 23.4375 -9.5 L 7.078125 -9.5 C 7.203125 -7.882812 7.765625 -6.617188 8.765625 -5.703125 C 9.765625 -4.785156 10.988281 -4.328125 12.4375 -4.328125 C 14.539062 -4.328125 16.039062 -5.226562 16.9375 -7.03125 L 23.03125 -7.03125 C 22.382812 -4.875 21.144531 -3.101562 19.3125 -1.71875 C 17.476562 -0.332031 15.226562 0.359375 12.5625 0.359375 C 10.40625 0.359375 8.472656 -0.113281 6.765625 -1.0625 C 5.054688 -2.019531 3.722656 -3.375 2.765625 -5.125 C 1.804688 -6.882812 1.328125 -8.90625 1.328125 -11.1875 C 1.328125 -13.507812 1.796875 -15.546875 2.734375 -17.296875 C 3.679688 -19.046875 5.003906 -20.390625 6.703125 -21.328125 C 8.398438 -22.273438 10.351562 -22.75 12.5625 -22.75 C 14.695312 -22.75 16.601562 -22.289062 18.28125 -21.375 C 19.96875 -20.457031 21.273438 -19.15625 22.203125 -17.46875 C 23.128906 -15.789062 23.59375 -13.859375 23.59375 -11.671875 Z M 17.734375 -13.296875 C 17.710938 -14.742188 17.1875 -15.90625 16.15625 -16.78125 C 15.132812 -17.664062 13.882812 -18.109375 12.40625 -18.109375 C 11 -18.109375 9.816406 -17.679688 8.859375 -16.828125 C 7.910156 -15.984375 7.328125 -14.804688 7.109375 -13.296875 Z M 17.734375 -13.296875 "/></g></g></g><g fill="#000000" fill-opacity="1"><g transform="translate(257.52655, 51.749995)"><g><path d="M 11.359375 0.359375 C 9.523438 0.359375 7.878906 0.03125 6.421875 -0.625 C 4.972656 -1.28125 3.820312 -2.175781 2.96875 -3.3125 C 2.125 -4.445312 1.660156 -5.703125 1.578125 -7.078125 L 7.265625 -7.078125 C 7.378906 -6.210938 7.804688 -5.492188 8.546875 -4.921875 C 9.285156 -4.359375 10.207031 -4.078125 11.3125 -4.078125 C 12.394531 -4.078125 13.238281 -4.289062 13.84375 -4.71875 C 14.445312 -5.15625 14.75 -5.710938 14.75 -6.390625 C 14.75 -7.109375 14.378906 -7.648438 13.640625 -8.015625 C 12.898438 -8.378906 11.71875 -8.78125 10.09375 -9.21875 C 8.425781 -9.613281 7.0625 -10.023438 6 -10.453125 C 4.9375 -10.890625 4.019531 -11.550781 3.25 -12.4375 C 2.476562 -13.332031 2.09375 -14.535156 2.09375 -16.046875 C 2.09375 -17.285156 2.453125 -18.414062 3.171875 -19.4375 C 3.890625 -20.457031 4.914062 -21.265625 6.25 -21.859375 C 7.582031 -22.453125 9.148438 -22.75 10.953125 -22.75 C 13.617188 -22.75 15.742188 -22.082031 17.328125 -20.75 C 18.921875 -19.414062 19.796875 -17.617188 19.953125 -15.359375 L 14.546875 -15.359375 C 14.460938 -16.242188 14.085938 -16.945312 13.421875 -17.46875 C 12.765625 -18 11.882812 -18.265625 10.78125 -18.265625 C 9.757812 -18.265625 8.972656 -18.070312 8.421875 -17.6875 C 7.867188 -17.3125 7.59375 -16.789062 7.59375 -16.125 C 7.59375 -15.363281 7.96875 -14.785156 8.71875 -14.390625 C 9.476562 -14.003906 10.65625 -13.613281 12.25 -13.21875 C 13.863281 -12.8125 15.191406 -12.390625 16.234375 -11.953125 C 17.285156 -11.523438 18.195312 -10.859375 18.96875 -9.953125 C 19.738281 -9.054688 20.132812 -7.867188 20.15625 -6.390625 C 20.15625 -5.085938 19.796875 -3.925781 19.078125 -2.90625 C 18.367188 -1.882812 17.347656 -1.082031 16.015625 -0.5 C 14.679688 0.0703125 13.128906 0.359375 11.359375 0.359375 Z M 11.359375 0.359375 "/></g></g></g><g clip-path="url(#dce6952a40)"><path fill="#38b6ff" d="M 322.070312 31.089844 L 320.789062 30.34375 C 320.550781 30.203125 320.234375 30.132812 319.921875 30.132812 C 319.605469 30.132812 319.289062 30.203125 319.050781 30.34375 L 317.769531 31.089844 C 317.289062 31.371094 316.898438 32.050781 316.898438 32.605469 L 316.898438 34.117188 C 316.898438 34.28125 316.9375 34.457031 317 34.628906 L 308.597656 39.460938 C 308.484375 39.332031 308.359375 39.222656 308.226562 39.144531 L 304.421875 36.894531 C 304.339844 36.847656 304.25 36.808594 304.152344 36.777344 L 304.152344 33.25 C 304.285156 33.214844 304.410156 33.167969 304.519531 33.105469 L 305.800781 32.359375 C 306.28125 32.078125 306.671875 31.398438 306.671875 30.84375 L 306.671875 29.332031 C 306.671875 28.777344 306.28125 28.097656 305.800781 27.816406 L 304.519531 27.070312 C 304.28125 26.929688 303.964844 26.863281 303.648438 26.863281 C 303.335938 26.863281 303.019531 26.929688 302.78125 27.070312 L 301.5 27.816406 C 301.019531 28.097656 300.628906 28.777344 300.628906 29.332031 L 300.628906 30.84375 C 300.628906 31.398438 301.019531 32.078125 301.5 32.359375 L 302.78125 33.105469 C 302.886719 33.167969 303.015625 33.214844 303.144531 33.25 L 303.144531 36.726562 C 302.980469 36.761719 302.820312 36.816406 302.6875 36.894531 L 298.882812 39.144531 C 298.40625 39.425781 298.015625 40.109375 298.015625 40.664062 L 298.015625 45.195312 C 298.015625 45.300781 298.035156 45.410156 298.0625 45.523438 L 296.183594 46.601562 C 296.089844 46.507812 295.992188 46.425781 295.886719 46.367188 L 294.605469 45.617188 C 294.367188 45.476562 294.050781 45.410156 293.738281 45.410156 C 293.421875 45.410156 293.105469 45.476562 292.867188 45.617188 L 291.585938 46.367188 C 291.105469 46.644531 290.714844 47.324219 290.714844 47.878906 L 290.714844 49.390625 C 290.714844 49.945312 291.105469 50.625 291.585938 50.90625 L 292.867188 51.652344 C 293.105469 51.792969 293.421875 51.863281 293.738281 51.863281 C 294.050781 51.863281 294.367188 51.792969 294.605469 51.652344 L 295.886719 50.90625 C 296.367188 50.625 296.757812 49.945312 296.757812 49.390625 L 296.757812 47.878906 C 296.757812 47.75 296.734375 47.609375 296.695312 47.46875 L 298.53125 46.414062 C 298.636719 46.535156 298.757812 46.640625 298.882812 46.714844 L 302.6875 48.960938 C 302.820312 49.039062 302.980469 49.09375 303.144531 49.128906 L 303.144531 52.605469 C 303.015625 52.640625 302.886719 52.6875 302.78125 52.75 L 301.5 53.5 C 301.019531 53.777344 300.628906 54.460938 300.628906 55.011719 L 300.628906 56.523438 C 300.628906 57.078125 301.019531 57.757812 301.5 58.039062 L 302.78125 58.785156 C 303.019531 58.925781 303.335938 58.996094 303.648438 58.996094 C 303.964844 58.996094 304.28125 58.925781 304.519531 58.785156 L 305.800781 58.039062 C 306.28125 57.757812 306.671875 57.078125 306.671875 56.523438 L 306.671875 55.011719 C 306.671875 54.460938 306.28125 53.777344 305.800781 53.5 L 304.519531 52.75 C 304.410156 52.6875 304.285156 52.640625 304.152344 52.605469 L 304.152344 49.078125 C 304.25 49.046875 304.339844 49.011719 304.421875 48.960938 L 308.226562 46.714844 C 308.332031 46.652344 308.429688 46.570312 308.519531 46.476562 L 316.6875 49.921875 C 316.664062 50.027344 316.648438 50.128906 316.648438 50.230469 L 316.648438 51.742188 C 316.648438 52.292969 317.039062 52.976562 317.515625 53.253906 L 318.800781 54.003906 C 319.039062 54.140625 319.355469 54.210938 319.667969 54.210938 C 319.984375 54.210938 320.300781 54.140625 320.539062 54.003906 L 321.820312 53.253906 C 322.296875 52.976562 322.691406 52.292969 322.691406 51.742188 L 322.691406 50.230469 C 322.691406 49.675781 322.296875 48.996094 321.820312 48.714844 L 320.539062 47.96875 C 320.300781 47.828125 319.984375 47.757812 319.667969 47.757812 C 319.355469 47.757812 319.039062 47.828125 318.800781 47.96875 L 317.515625 48.714844 C 317.386719 48.792969 317.261719 48.898438 317.152344 49.027344 L 309.03125 45.597656 C 309.070312 45.460938 309.09375 45.324219 309.09375 45.195312 L 309.09375 40.664062 C 309.09375 40.566406 309.078125 40.460938 309.054688 40.359375 L 317.554688 35.472656 C 317.625 35.53125 317.695312 35.585938 317.769531 35.632812 L 319.050781 36.378906 C 319.289062 36.519531 319.605469 36.589844 319.921875 36.589844 C 320.234375 36.589844 320.550781 36.519531 320.789062 36.378906 L 322.070312 35.632812 C 322.550781 35.351562 322.941406 34.671875 322.941406 34.117188 L 322.941406 32.605469 C 322.941406 32.050781 322.550781 31.371094 322.070312 31.089844 Z M 322.070312 31.089844 " fill-opacity="1" fill-rule="nonzero"/></g></svg>