<?xml version="1.0" encoding="UTF-8" standalone="no"?>
<!DOCTYPE svg PUBLIC "-//W3C//DTD SVG 1.1//EN"
 "http://www.w3.org/Graphics/SVG/1.1/DTD/svg11.dtd">
<!-- Generated by graphviz version 13.1.2 (20250808.2320)
 -->
<!-- Pages: 1 -->
<svg width="521pt" height="448pt"
 viewBox="0.00 0.00 521.00 448.00" xmlns="http://www.w3.org/2000/svg" xmlns:xlink="http://www.w3.org/1999/xlink">
<g id="graph0" class="graph" transform="scale(1 1) rotate(0) translate(4 444)">
<polygon fill="white" stroke="none" points="-4,4 -4,-444 517,-444 517,4 -4,4"/>
<g id="clust1" class="cluster">
<title>cluster_run</title>
<polygon fill="none" stroke="#888888" stroke-dasharray="5,2" points="8,-8 8,-115 501.88,-115 501.88,-8 8,-8"/>
<text xml:space="preserve" text-anchor="middle" x="254.94" y="-97.7" font-family="Arial" font-size="14.00" fill="#555555">Pipeline.run()</text>
</g>
<g id="clust2" class="cluster">
<title>cluster_map</title>
<polygon fill="none" stroke="#888888" stroke-dasharray="5,2" points="14.88,-123 14.88,-432 505,-432 505,-123 14.88,-123"/>
<text xml:space="preserve" text-anchor="middle" x="259.94" y="-414.7" font-family="Arial" font-size="14.00" fill="#555555">Pipeline.map()</text>
</g>
<g id="clust3" class="cluster">
<title>cluster_pipeline</title>
<polygon fill="#f5f5f5" stroke="#f5f5f5" points="147.75,-224 147.75,-331 372.75,-331 372.75,-224 147.75,-224"/>
<text xml:space="preserve" text-anchor="middle" x="260.25" y="-313.7" font-family="Arial" font-size="14.00" fill="#555555">The Pipeline</text>
</g>
<!-- input_run -->
<g id="node1" class="node">
<title>input_run</title>
<polygon fill="#e3f2fd" stroke="#2196f3" points="89.75,-71.6 28,-71.6 28,-28.4 95.75,-28.4 95.75,-65.6 89.75,-71.6"/>
<polyline fill="none" stroke="#2196f3" points="89.75,-71.6 89.75,-65.6"/>
<polyline fill="none" stroke="#2196f3" points="95.75,-65.6 89.75,-65.6"/>
<text xml:space="preserve" text-anchor="middle" x="61.88" y="-45.73" font-family="Arial" font-size="12.00">Input Item</text>
</g>
<!-- node1_run -->
<g id="node2" class="node">
<title>node1_run</title>
<path fill="white" stroke="black" d="M212.25,-71.6C212.25,-71.6 179.75,-71.6 179.75,-71.6 173.75,-71.6 167.75,-65.6 167.75,-59.6 167.75,-59.6 167.75,-40.4 167.75,-40.4 167.75,-34.4 173.75,-28.4 179.75,-28.4 179.75,-28.4 212.25,-28.4 212.25,-28.4 218.25,-28.4 224.25,-34.4 224.25,-40.4 224.25,-40.4 224.25,-59.6 224.25,-59.6 224.25,-65.6 218.25,-71.6 212.25,-71.6"/>
<text xml:space="preserve" text-anchor="middle" x="196" y="-45.73" font-family="Arial" font-size="12.00">Node A</text>
</g>
<!-- input_run&#45;&gt;node1_run -->
<g id="edge1" class="edge">
<title>input_run&#45;&gt;node1_run</title>
<path fill="none" stroke="#555555" d="M96.07,-50C96.07,-50 157.8,-50 157.8,-50"/>
<polygon fill="#555555" stroke="#555555" points="157.8,-52.8 165.8,-50 157.8,-47.2 157.8,-52.8"/>
</g>
<!-- node2_run -->
<g id="node3" class="node">
<title>node2_run</title>
<path fill="white" stroke="black" d="M340.75,-71.6C340.75,-71.6 308.25,-71.6 308.25,-71.6 302.25,-71.6 296.25,-65.6 296.25,-59.6 296.25,-59.6 296.25,-40.4 296.25,-40.4 296.25,-34.4 302.25,-28.4 308.25,-28.4 308.25,-28.4 340.75,-28.4 340.75,-28.4 346.75,-28.4 352.75,-34.4 352.75,-40.4 352.75,-40.4 352.75,-59.6 352.75,-59.6 352.75,-65.6 346.75,-71.6 340.75,-71.6"/>
<text xml:space="preserve" text-anchor="middle" x="324.5" y="-45.73" font-family="Arial" font-size="12.00">Node B</text>
</g>
<!-- node1_run&#45;&gt;node2_run -->
<g id="edge2" class="edge">
<title>node1_run&#45;&gt;node2_run</title>
<path fill="none" stroke="#555555" d="M224.52,-50C224.52,-50 286.55,-50 286.55,-50"/>
<polygon fill="#555555" stroke="#555555" points="286.55,-52.8 294.55,-50 286.55,-47.2 286.55,-52.8"/>
</g>
<!-- output_run -->
<g id="node4" class="node">
<title>output_run</title>
<polygon fill="#e8f5e9" stroke="#4caf50" points="475.88,-71.6 427.88,-71.6 427.88,-28.4 481.88,-28.4 481.88,-65.6 475.88,-71.6"/>
<polyline fill="none" stroke="#4caf50" points="475.88,-71.6 475.88,-65.6"/>
<polyline fill="none" stroke="#4caf50" points="481.88,-65.6 475.88,-65.6"/>
<text xml:space="preserve" text-anchor="middle" x="454.88" y="-45.73" font-family="Arial" font-size="12.00">Output</text>
</g>
<!-- node2_run&#45;&gt;output_run -->
<g id="edge3" class="edge">
<title>node2_run&#45;&gt;output_run</title>
<path fill="none" stroke="#555555" d="M353.11,-50C353.11,-50 418.15,-50 418.15,-50"/>
<polygon fill="#555555" stroke="#555555" points="418.15,-52.8 426.15,-50 418.15,-47.2 418.15,-52.8"/>
</g>
<!-- input_map_1 -->
<g id="node5" class="node">
<title>input_map_1</title>
<polygon fill="#e3f2fd" stroke="#2196f3" points="82.88,-186.6 34.88,-186.6 34.88,-143.4 88.88,-143.4 88.88,-180.6 82.88,-186.6"/>
<polyline fill="none" stroke="#2196f3" points="82.88,-186.6 82.88,-180.6"/>
<polyline fill="none" stroke="#2196f3" points="88.88,-180.6 82.88,-180.6"/>
<text xml:space="preserve" text-anchor="middle" x="61.88" y="-160.72" font-family="Arial" font-size="12.00">Item 1</text>
</g>
<!-- node1_map -->
<g id="node8" class="node">
<title>node1_map</title>
<path fill="white" stroke="black" d="M212.25,-287.6C212.25,-287.6 179.75,-287.6 179.75,-287.6 173.75,-287.6 167.75,-281.6 167.75,-275.6 167.75,-275.6 167.75,-256.4 167.75,-256.4 167.75,-250.4 173.75,-244.4 179.75,-244.4 179.75,-244.4 212.25,-244.4 212.25,-244.4 218.25,-244.4 224.25,-250.4 224.25,-256.4 224.25,-256.4 224.25,-275.6 224.25,-275.6 224.25,-281.6 218.25,-287.6 212.25,-287.6"/>
<text xml:space="preserve" text-anchor="middle" x="196" y="-261.73" font-family="Arial" font-size="12.00">Node A</text>
</g>
<!-- input_map_1&#45;&gt;node1_map -->
<g id="edge5" class="edge">
<title>input_map_1&#45;&gt;node1_map</title>
<path fill="none" stroke="#2196f3" stroke-dasharray="5,2" d="M89.34,-157.8C128.58,-157.8 196,-157.8 196,-157.8 196,-157.8 196,-191.75 196,-214.5"/>
<polygon fill="#2196f3" stroke="#2196f3" points="193.2,-214.49 196,-222.49 198.8,-214.49 193.2,-214.49"/>
</g>
<!-- input_map_2 -->
<g id="node6" class="node">
<title>input_map_2</title>
<polygon fill="#e3f2fd" stroke="#2196f3" points="82.88,-287.6 34.88,-287.6 34.88,-244.4 88.88,-244.4 88.88,-281.6 82.88,-287.6"/>
<polyline fill="none" stroke="#2196f3" points="82.88,-287.6 82.88,-281.6"/>
<polyline fill="none" stroke="#2196f3" points="88.88,-281.6 82.88,-281.6"/>
<text xml:space="preserve" text-anchor="middle" x="61.88" y="-261.73" font-family="Arial" font-size="12.00">Item 2</text>
</g>
<!-- input_map_2&#45;&gt;node1_map -->
<g id="edge6" class="edge">
<title>input_map_2&#45;&gt;node1_map</title>
<path fill="none" stroke="#2196f3" stroke-dasharray="5,2" d="M89.34,-266C89.34,-266 118.02,-266 138.34,-266"/>
<polygon fill="#2196f3" stroke="#2196f3" points="138.24,-268.8 146.24,-266 138.24,-263.2 138.24,-268.8"/>
</g>
<!-- input_map_3 -->
<g id="node7" class="node">
<title>input_map_3</title>
<polygon fill="#e3f2fd" stroke="#2196f3" points="82.88,-388.6 34.88,-388.6 34.88,-345.4 88.88,-345.4 88.88,-382.6 82.88,-388.6"/>
<polyline fill="none" stroke="#2196f3" points="82.88,-388.6 82.88,-382.6"/>
<polyline fill="none" stroke="#2196f3" points="88.88,-382.6 82.88,-382.6"/>
<text xml:space="preserve" text-anchor="middle" x="61.88" y="-362.73" font-family="Arial" font-size="12.00">Item 3</text>
</g>
<!-- input_map_3&#45;&gt;node1_map -->
<g id="edge7" class="edge">
<title>input_map_3&#45;&gt;node1_map</title>
<path fill="none" stroke="#2196f3" stroke-dasharray="5,2" d="M89.34,-359.8C128.58,-359.8 196,-359.8 196,-359.8 196,-359.8 196,-351.24 196,-340.45"/>
<polygon fill="#2196f3" stroke="#2196f3" points="198.8,-340.51 196,-332.51 193.2,-340.51 198.8,-340.51"/>
</g>
<!-- node2_map -->
<g id="node9" class="node">
<title>node2_map</title>
<path fill="white" stroke="black" d="M340.75,-287.6C340.75,-287.6 308.25,-287.6 308.25,-287.6 302.25,-287.6 296.25,-281.6 296.25,-275.6 296.25,-275.6 296.25,-256.4 296.25,-256.4 296.25,-250.4 302.25,-244.4 308.25,-244.4 308.25,-244.4 340.75,-244.4 340.75,-244.4 346.75,-244.4 352.75,-250.4 352.75,-256.4 352.75,-256.4 352.75,-275.6 352.75,-275.6 352.75,-281.6 346.75,-287.6 340.75,-287.6"/>
<text xml:space="preserve" text-anchor="middle" x="324.5" y="-261.73" font-family="Arial" font-size="12.00">Node B</text>
</g>
<!-- node1_map&#45;&gt;node2_map -->
<g id="edge4" class="edge">
<title>node1_map&#45;&gt;node2_map</title>
<path fill="none" stroke="#555555" d="M224.52,-266C224.52,-266 286.55,-266 286.55,-266"/>
<polygon fill="#555555" stroke="#555555" points="286.55,-268.8 294.55,-266 286.55,-263.2 286.55,-268.8"/>
</g>
<!-- output_map_1 -->
<g id="node10" class="node">
<title>output_map_1</title>
<polygon fill="#e8f5e9" stroke="#4caf50" points="479,-186.6 424.75,-186.6 424.75,-143.4 485,-143.4 485,-180.6 479,-186.6"/>
<polyline fill="none" stroke="#4caf50" points="479,-186.6 479,-180.6"/>
<polyline fill="none" stroke="#4caf50" points="485,-180.6 479,-180.6"/>
<text xml:space="preserve" text-anchor="middle" x="454.88" y="-160.72" font-family="Arial" font-size="12.00">Result 1</text>
</g>
<!-- node2_map&#45;&gt;output_map_1 -->
<g id="edge8" class="edge">
<title>node2_map&#45;&gt;output_map_1</title>
<path fill="none" stroke="#4caf50" stroke-dasharray="5,2" d="M324,-224C324,-199.04 324,-172.2 324,-172.2 324,-172.2 415.01,-172.2 415.01,-172.2"/>
<polygon fill="#4caf50" stroke="#4caf50" points="415.01,-175 423.01,-172.2 415.01,-169.4 415.01,-175"/>
</g>
<!-- output_map_2 -->
<g id="node11" class="node">
<title>output_map_2</title>
<polygon fill="#e8f5e9" stroke="#4caf50" points="479,-287.6 424.75,-287.6 424.75,-244.4 485,-244.4 485,-281.6 479,-287.6"/>
<polyline fill="none" stroke="#4caf50" points="479,-287.6 479,-281.6"/>
<polyline fill="none" stroke="#4caf50" points="485,-281.6 479,-281.6"/>
<text xml:space="preserve" text-anchor="middle" x="454.88" y="-261.73" font-family="Arial" font-size="12.00">Result 2</text>
</g>
<!-- node2_map&#45;&gt;output_map_2 -->
<g id="edge9" class="edge">
<title>node2_map&#45;&gt;output_map_2</title>
<path fill="none" stroke="#4caf50" stroke-dasharray="5,2" d="M372.75,-266C390.87,-266 415,-266 415,-266"/>
<polygon fill="#4caf50" stroke="#4caf50" points="415,-268.8 423,-266 415,-263.2 415,-268.8"/>
</g>
<!-- output_map_3 -->
<g id="node12" class="node">
<title>output_map_3</title>
<polygon fill="#e8f5e9" stroke="#4caf50" points="479,-388.6 424.75,-388.6 424.75,-345.4 485,-345.4 485,-382.6 479,-388.6"/>
<polyline fill="none" stroke="#4caf50" points="479,-388.6 479,-382.6"/>
<polyline fill="none" stroke="#4caf50" points="485,-382.6 479,-382.6"/>
<text xml:space="preserve" text-anchor="middle" x="454.88" y="-362.73" font-family="Arial" font-size="12.00">Result 3</text>
</g>
<!-- node2_map&#45;&gt;output_map_3 -->
<g id="edge10" class="edge">
<title>node2_map&#45;&gt;output_map_3</title>
<path fill="none" stroke="#4caf50" stroke-dasharray="5,2" d="M324,-331C324,-353.97 324,-374.2 324,-374.2 324,-374.2 415.01,-374.2 415.01,-374.2"/>
<polygon fill="#4caf50" stroke="#4caf50" points="415.01,-377 423.01,-374.2 415.01,-371.4 415.01,-377"/>
</g>
</g>
</svg>
