<?xml version="1.0" encoding="UTF-8" standalone="no"?>
<!DOCTYPE svg PUBLIC "-//W3C//DTD SVG 1.1//EN"
 "http://www.w3.org/Graphics/SVG/1.1/DTD/svg11.dtd">
<!-- Generated by graphviz version 13.1.2 (20250808.2320)
 -->
<!-- Pages: 1 -->
<svg width="2720pt" height="898pt"
 viewBox="0.00 0.00 2720.00 898.00" xmlns="http://www.w3.org/2000/svg" xmlns:xlink="http://www.w3.org/1999/xlink">
<g id="graph0" class="graph" transform="scale(1 1) rotate(0) translate(4.32 893.62)">
<polygon fill="#ffffff" stroke="none" points="-4.32,4.32 -4.32,-893.62 2715.61,-893.62 2715.61,4.32 -4.32,4.32"/>
<g id="clust1" class="cluster">
<title>cluster_4649986880</title>
<path fill="#f9f9f9" stroke="#999999" stroke-width="2" d="M655.27,-770.4C655.27,-770.4 921.27,-770.4 921.27,-770.4 927.27,-770.4 933.27,-776.4 933.27,-782.4 933.27,-782.4 933.27,-869.3 933.27,-869.3 933.27,-875.3 927.27,-881.3 921.27,-881.3 921.27,-881.3 655.27,-881.3 655.27,-881.3 649.27,-881.3 643.27,-875.3 643.27,-869.3 643.27,-869.3 643.27,-782.4 643.27,-782.4 643.27,-776.4 649.27,-770.4 655.27,-770.4"/>
<text xml:space="preserve" text-anchor="middle" x="788.27" y="-864.95" font-family="Helvetica,sans-Serif" font-size="13.00">encode_passages_mapped</text>
</g>
<g id="clust2" class="cluster">
<title>cluster_4650098784</title>
<path fill="#f9f9f9" stroke="#999999" stroke-width="2" d="M953.27,-770.4C953.27,-770.4 1185.27,-770.4 1185.27,-770.4 1191.27,-770.4 1197.27,-776.4 1197.27,-782.4 1197.27,-782.4 1197.27,-869.3 1197.27,-869.3 1197.27,-875.3 1191.27,-881.3 1185.27,-881.3 1185.27,-881.3 953.27,-881.3 953.27,-881.3 947.27,-881.3 941.27,-875.3 941.27,-869.3 941.27,-869.3 941.27,-782.4 941.27,-782.4 941.27,-776.4 947.27,-770.4 953.27,-770.4"/>
<text xml:space="preserve" text-anchor="middle" x="1069.27" y="-864.95" font-family="Helvetica,sans-Serif" font-size="13.00">encode_queries_mapped</text>
</g>
<g id="clust3" class="cluster">
<title>cluster_4650096624</title>
<path fill="#f9f9f9" stroke="#999999" stroke-width="2" d="M1217.27,-770.4C1217.27,-770.4 2511.27,-770.4 2511.27,-770.4 2517.27,-770.4 2523.27,-776.4 2523.27,-782.4 2523.27,-782.4 2523.27,-869.3 2523.27,-869.3 2523.27,-875.3 2517.27,-881.3 2511.27,-881.3 2511.27,-881.3 1217.27,-881.3 1217.27,-881.3 1211.27,-881.3 1205.27,-875.3 1205.27,-869.3 1205.27,-869.3 1205.27,-782.4 1205.27,-782.4 1205.27,-776.4 1211.27,-770.4 1217.27,-770.4"/>
<text xml:space="preserve" text-anchor="middle" x="1864.27" y="-864.95" font-family="Helvetica,sans-Serif" font-size="13.00">retrieve_queries_mapped</text>
</g>
<!-- 4641618208 -->
<g id="node1" class="node">
<title>4641618208</title>
<path fill="#87ceeb" stroke="black" stroke-width="2" d="M312.79,-728.4C312.79,-728.4 155.75,-728.4 155.75,-728.4 149.75,-728.4 143.75,-722.4 143.75,-716.4 143.75,-716.4 143.75,-683 143.75,-683 143.75,-677 149.75,-671 155.75,-671 155.75,-671 312.79,-671 312.79,-671 318.79,-671 324.79,-677 324.79,-683 324.79,-683 324.79,-716.4 324.79,-716.4 324.79,-722.4 318.79,-728.4 312.79,-728.4"/>
<text xml:space="preserve" text-anchor="start" x="185.89" y="-705.85" font-family="Helvetica,sans-Serif" font-weight="bold" font-size="13.00">load_passages</text>
<polygon fill="#87ceeb" stroke="none" points="155.27,-678.2 155.27,-699.7 313.27,-699.7 313.27,-678.2 155.27,-678.2"/>
<text xml:space="preserve" text-anchor="start" x="159.27" y="-683.35" font-family="Helvetica,sans-Serif" font-size="13.00">passages : List[Passage]</text>
</g>
<!-- 4650098112 -->
<g id="node11" class="node">
<title>4650098112</title>
<path fill="#87ceeb" stroke="black" stroke-width="2" d="M170.54,-613C170.54,-613 12,-613 12,-613 6,-613 0,-607 0,-601 0,-601 0,-567.6 0,-567.6 0,-561.6 6,-555.6 12,-555.6 12,-555.6 170.54,-555.6 170.54,-555.6 176.54,-555.6 182.54,-561.6 182.54,-567.6 182.54,-567.6 182.54,-601 182.54,-601 182.54,-607 176.54,-613 170.54,-613"/>
<text xml:space="preserve" text-anchor="start" x="32.77" y="-590.45" font-family="Helvetica,sans-Serif" font-weight="bold" font-size="13.00">build_bm25_index</text>
<polygon fill="#87ceeb" stroke="none" points="11.52,-562.8 11.52,-584.3 171.02,-584.3 171.02,-562.8 11.52,-562.8"/>
<text xml:space="preserve" text-anchor="start" x="15.52" y="-567.95" font-family="Helvetica,sans-Serif" font-size="13.00">bm25_index : BM25Index</text>
</g>
<!-- 4641618208&#45;&gt;4650098112 -->
<g id="edge6" class="edge">
<title>4641618208&#45;&gt;4650098112</title>
<path fill="none" stroke="#333333" stroke-width="2" d="M198.19,-670.08C179.73,-655.45 157.05,-637.47 137.34,-621.84"/>
<polygon fill="#333333" stroke="#333333" stroke-width="2" points="139.73,-619.26 129.72,-615.79 135.38,-624.74 139.73,-619.26"/>
</g>
<!-- 4650096576 -->
<g id="node32" class="node">
<title>4650096576</title>
<ellipse fill="none" stroke="black" cx="326.27" cy="-584.3" rx="56.98" ry="18"/>
<text xml:space="preserve" text-anchor="middle" x="326.27" y="-579.25" font-family="Times,serif" font-size="14.00">4650096576</text>
</g>
<!-- 4641618208&#45;&gt;4650096576 -->
<g id="edge7" class="edge">
<title>4641618208&#45;&gt;4650096576</title>
<path fill="none" stroke="#333333" stroke-width="2" d="M257.49,-670.08C271.94,-652.26 290.42,-629.49 304.58,-612.03"/>
<polygon fill="#333333" stroke="#333333" stroke-width="2" points="307.28,-614.26 310.86,-604.29 301.84,-609.85 307.28,-614.26"/>
</g>
<!-- group_4641618208 -->
<g id="node2" class="node">
<title>group_4641618208</title>
<polygon fill="#90ee90" stroke="black" stroke-width="2" points="300.04,-843.8 168.5,-843.8 168.5,-786.4 300.04,-786.4 300.04,-843.8"/>
<text xml:space="preserve" text-anchor="start" x="184.02" y="-820.25" font-family="Helvetica,sans-Serif" font-size="13.00">corpus_path : str</text>
<text xml:space="preserve" text-anchor="start" x="198.64" y="-798.75" font-family="Helvetica,sans-Serif" font-size="13.00">limit : int = 0</text>
</g>
<!-- group_4641618208&#45;&gt;4641618208 -->
<g id="edge31" class="edge">
<title>group_4641618208&#45;&gt;4641618208</title>
<path fill="none" stroke="#666666" stroke-width="2" d="M234.27,-785.48C234.27,-772.32 234.27,-756.46 234.27,-742.03"/>
<polygon fill="#666666" stroke="#666666" stroke-width="2" points="237.77,-742.33 234.27,-732.33 230.77,-742.33 237.77,-742.33"/>
</g>
<!-- 4645462400 -->
<g id="node3" class="node">
<title>4645462400</title>
<path fill="#87ceeb" stroke="black" stroke-width="2" d="M934.79,-613C934.79,-613 807.75,-613 807.75,-613 801.75,-613 795.75,-607 795.75,-601 795.75,-601 795.75,-567.6 795.75,-567.6 795.75,-561.6 801.75,-555.6 807.75,-555.6 807.75,-555.6 934.79,-555.6 934.79,-555.6 940.79,-555.6 946.79,-561.6 946.79,-567.6 946.79,-567.6 946.79,-601 946.79,-601 946.79,-607 940.79,-613 934.79,-613"/>
<text xml:space="preserve" text-anchor="start" x="829.64" y="-590.45" font-family="Helvetica,sans-Serif" font-weight="bold" font-size="13.00">load_queries</text>
<polygon fill="#87ceeb" stroke="none" points="807.27,-562.8 807.27,-584.3 935.27,-584.3 935.27,-562.8 807.27,-562.8"/>
<text xml:space="preserve" text-anchor="start" x="811.27" y="-567.95" font-family="Helvetica,sans-Serif" font-size="13.00">queries : List[Query]</text>
</g>
<!-- 4650099648 -->
<g id="node33" class="node">
<title>4650099648</title>
<ellipse fill="none" stroke="black" cx="715.27" cy="-468.9" rx="56.98" ry="18"/>
<text xml:space="preserve" text-anchor="middle" x="715.27" y="-463.85" font-family="Times,serif" font-size="14.00">4650099648</text>
</g>
<!-- 4645462400&#45;&gt;4650099648 -->
<g id="edge14" class="edge">
<title>4645462400&#45;&gt;4650099648</title>
<path fill="none" stroke="#333333" stroke-width="2" d="M831.9,-554.68C805.92,-535.79 772.28,-511.34 747.81,-493.55"/>
<polygon fill="#333333" stroke="#333333" stroke-width="2" points="749.86,-490.72 739.72,-487.67 745.75,-496.38 749.86,-490.72"/>
</g>
<!-- 4553652176 -->
<g id="node4" class="node">
<title>4553652176</title>
<path fill="#87ceeb" stroke="black" stroke-width="2" d="M1199.41,-288.2C1199.41,-288.2 995.12,-288.2 995.12,-288.2 989.12,-288.2 983.12,-282.2 983.12,-276.2 983.12,-276.2 983.12,-242.8 983.12,-242.8 983.12,-236.8 989.12,-230.8 995.12,-230.8 995.12,-230.8 1199.41,-230.8 1199.41,-230.8 1205.41,-230.8 1211.41,-236.8 1211.41,-242.8 1211.41,-242.8 1211.41,-276.2 1211.41,-276.2 1211.41,-282.2 1205.41,-288.2 1199.41,-288.2"/>
<text xml:space="preserve" text-anchor="start" x="1033.52" y="-265.65" font-family="Helvetica,sans-Serif" font-weight="bold" font-size="13.00">load_ground_truths</text>
<polygon fill="#87ceeb" stroke="none" points="994.64,-238 994.64,-259.5 1199.89,-259.5 1199.89,-238 994.64,-238"/>
<text xml:space="preserve" text-anchor="start" x="998.64" y="-243.15" font-family="Helvetica,sans-Serif" font-size="13.00">ground_truths : List[GroundTruth]</text>
</g>
<!-- 4650097344 -->
<g id="node21" class="node">
<title>4650097344</title>
<path fill="#87ceeb" stroke="black" stroke-width="2" d="M895.04,-172.8C895.04,-172.8 781.5,-172.8 781.5,-172.8 775.5,-172.8 769.5,-166.8 769.5,-160.8 769.5,-160.8 769.5,-127.4 769.5,-127.4 769.5,-121.4 775.5,-115.4 781.5,-115.4 781.5,-115.4 895.04,-115.4 895.04,-115.4 901.04,-115.4 907.04,-121.4 907.04,-127.4 907.04,-127.4 907.04,-160.8 907.04,-160.8 907.04,-166.8 901.04,-172.8 895.04,-172.8"/>
<text xml:space="preserve" text-anchor="start" x="790.64" y="-150.25" font-family="Helvetica,sans-Serif" font-weight="bold" font-size="13.00">compute_ndcg</text>
<polygon fill="#87ceeb" stroke="none" points="781.02,-122.6 781.02,-144.1 895.52,-144.1 895.52,-122.6 781.02,-122.6"/>
<text xml:space="preserve" text-anchor="start" x="785.02" y="-127.75" font-family="Helvetica,sans-Serif" font-size="13.00">ndcg_score : float</text>
</g>
<!-- 4553652176&#45;&gt;4650097344 -->
<g id="edge22" class="edge">
<title>4553652176&#45;&gt;4650097344</title>
<path fill="none" stroke="#333333" stroke-width="2" d="M1031.91,-229.88C996.49,-214.37 952.49,-195.11 915.39,-178.87"/>
<polygon fill="#333333" stroke="#333333" stroke-width="2" points="916.94,-175.73 906.38,-174.92 914.14,-182.14 916.94,-175.73"/>
</g>
<!-- 4650098640 -->
<g id="node22" class="node">
<title>4650098640</title>
<path fill="#87ceeb" stroke="black" stroke-width="2" d="M1158.16,-172.8C1158.16,-172.8 982.38,-172.8 982.38,-172.8 976.38,-172.8 970.38,-166.8 970.38,-160.8 970.38,-160.8 970.38,-127.4 970.38,-127.4 970.38,-121.4 976.38,-115.4 982.38,-115.4 982.38,-115.4 1158.16,-115.4 1158.16,-115.4 1164.16,-115.4 1170.16,-121.4 1170.16,-127.4 1170.16,-127.4 1170.16,-160.8 1170.16,-160.8 1170.16,-166.8 1164.16,-172.8 1158.16,-172.8"/>
<text xml:space="preserve" text-anchor="start" x="1021.14" y="-150.25" font-family="Helvetica,sans-Serif" font-weight="bold" font-size="13.00">compute_recall</text>
<polygon fill="#87ceeb" stroke="none" points="981.89,-122.6 981.89,-144.1 1158.64,-144.1 1158.64,-122.6 981.89,-122.6"/>
<text xml:space="preserve" text-anchor="start" x="985.89" y="-127.75" font-family="Helvetica,sans-Serif" font-size="13.00">recall_metrics : dict[str, float]</text>
</g>
<!-- 4553652176&#45;&gt;4650098640 -->
<g id="edge25" class="edge">
<title>4553652176&#45;&gt;4650098640</title>
<path fill="none" stroke="#333333" stroke-width="2" d="M1090.46,-229.88C1087.29,-216.59 1083.47,-200.54 1080.01,-185.99"/>
<polygon fill="#333333" stroke="#333333" stroke-width="2" points="1083.5,-185.57 1077.78,-176.65 1076.69,-187.19 1083.5,-185.57"/>
</g>
<!-- 4553652128 -->
<g id="node5" class="node">
<title>4553652128</title>
<path fill="#87ceeb" stroke="black" stroke-width="2" d="M618.91,-728.4C618.91,-728.4 501.62,-728.4 501.62,-728.4 495.62,-728.4 489.62,-722.4 489.62,-716.4 489.62,-716.4 489.62,-683 489.62,-683 489.62,-677 495.62,-671 501.62,-671 501.62,-671 618.91,-671 618.91,-671 624.91,-671 630.91,-677 630.91,-683 630.91,-683 630.91,-716.4 630.91,-716.4 630.91,-722.4 624.91,-728.4 618.91,-728.4"/>
<text xml:space="preserve" text-anchor="start" x="510.39" y="-705.85" font-family="Helvetica,sans-Serif" font-weight="bold" font-size="13.00">create_encoder</text>
<polygon fill="#87ceeb" stroke="none" points="501.14,-678.2 501.14,-699.7 619.39,-699.7 619.39,-678.2 501.14,-678.2"/>
<text xml:space="preserve" text-anchor="start" x="505.14" y="-683.35" font-family="Helvetica,sans-Serif" font-size="13.00">encoder : Encoder</text>
</g>
<!-- 4553652128&#45;&gt;4650096576 -->
<g id="edge8" class="edge">
<title>4553652128&#45;&gt;4650096576</title>
<path fill="none" stroke="#333333" stroke-width="2" d="M501.22,-670.08C459.56,-649.9 404.79,-623.35 367.71,-605.38"/>
<polygon fill="#333333" stroke="#333333" stroke-width="2" points="369.58,-602.4 359.05,-601.19 366.53,-608.7 369.58,-602.4"/>
</g>
<!-- 4553652128&#45;&gt;4650099648 -->
<g id="edge13" class="edge">
<title>4553652128&#45;&gt;4650099648</title>
<path fill="none" stroke="#333333" stroke-width="2" d="M580.87,-670.32C592.82,-653.72 608.07,-632.29 621.27,-613 648.41,-573.32 678.77,-526.67 697.45,-497.69"/>
<polygon fill="#333333" stroke="#333333" stroke-width="2" points="700.37,-499.63 702.84,-489.32 694.48,-495.84 700.37,-499.63"/>
</g>
<!-- 4647783360 -->
<g id="node6" class="node">
<title>4647783360</title>
<path fill="#87ceeb" stroke="black" stroke-width="2" d="M1139.91,-497.6C1139.91,-497.6 1022.62,-497.6 1022.62,-497.6 1016.62,-497.6 1010.62,-491.6 1010.62,-485.6 1010.62,-485.6 1010.62,-452.2 1010.62,-452.2 1010.62,-446.2 1016.62,-440.2 1022.62,-440.2 1022.62,-440.2 1139.91,-440.2 1139.91,-440.2 1145.91,-440.2 1151.91,-446.2 1151.91,-452.2 1151.91,-452.2 1151.91,-485.6 1151.91,-485.6 1151.91,-491.6 1145.91,-497.6 1139.91,-497.6"/>
<text xml:space="preserve" text-anchor="start" x="1026.14" y="-475.05" font-family="Helvetica,sans-Serif" font-weight="bold" font-size="13.00">create_rrf_fusion</text>
<polygon fill="#87ceeb" stroke="none" points="1022.14,-447.4 1022.14,-468.9 1140.39,-468.9 1140.39,-447.4 1022.14,-447.4"/>
<text xml:space="preserve" text-anchor="start" x="1035.14" y="-452.55" font-family="Helvetica,sans-Serif" font-size="13.00">rrf : RRFFusion</text>
</g>
<!-- 4650099792 -->
<g id="node34" class="node">
<title>4650099792</title>
<ellipse fill="none" stroke="black" cx="687.27" cy="-364.2" rx="56.98" ry="18"/>
<text xml:space="preserve" text-anchor="middle" x="687.27" y="-359.15" font-family="Times,serif" font-size="14.00">4650099792</text>
</g>
<!-- 4647783360&#45;&gt;4650099792 -->
<g id="edge20" class="edge">
<title>4647783360&#45;&gt;4650099792</title>
<path fill="none" stroke="#333333" stroke-width="2" d="M1009.97,-445.29C1004,-443.53 998.04,-441.81 992.27,-440.2 906.81,-416.42 806.8,-392.57 745.24,-378.35"/>
<polygon fill="#333333" stroke="#333333" stroke-width="2" points="746.19,-374.98 735.66,-376.15 744.62,-381.8 746.19,-374.98"/>
</g>
<!-- 4647784560 -->
<g id="node7" class="node">
<title>4647784560</title>
<path fill="#87ceeb" stroke="black" stroke-width="2" d="M681.54,-288.2C681.54,-288.2 475,-288.2 475,-288.2 469,-288.2 463,-282.2 463,-276.2 463,-276.2 463,-242.8 463,-242.8 463,-236.8 469,-230.8 475,-230.8 475,-230.8 681.54,-230.8 681.54,-230.8 687.54,-230.8 693.54,-236.8 693.54,-242.8 693.54,-242.8 693.54,-276.2 693.54,-276.2 693.54,-282.2 687.54,-288.2 681.54,-288.2"/>
<text xml:space="preserve" text-anchor="start" x="504.77" y="-265.65" font-family="Helvetica,sans-Serif" font-weight="bold" font-size="13.00">create_ndcg_evaluator</text>
<polygon fill="#87ceeb" stroke="none" points="474.52,-238 474.52,-259.5 682.02,-259.5 682.02,-238 474.52,-238"/>
<text xml:space="preserve" text-anchor="start" x="478.52" y="-243.15" font-family="Helvetica,sans-Serif" font-size="13.00">ndcg_evaluator : NDCGEvaluator</text>
</g>
<!-- 4647784560&#45;&gt;4650097344 -->
<g id="edge23" class="edge">
<title>4647784560&#45;&gt;4650097344</title>
<path fill="none" stroke="#333333" stroke-width="2" d="M643.88,-229.88C679.44,-214.37 723.61,-195.11 760.85,-178.87"/>
<polygon fill="#333333" stroke="#333333" stroke-width="2" points="762.14,-182.12 769.91,-174.92 759.34,-175.71 762.14,-182.12"/>
</g>
<!-- 4647794496 -->
<g id="node8" class="node">
<title>4647794496</title>
<path fill="#87ceeb" stroke="black" stroke-width="2" d="M1467.29,-288.2C1467.29,-288.2 1259.25,-288.2 1259.25,-288.2 1253.25,-288.2 1247.25,-282.2 1247.25,-276.2 1247.25,-276.2 1247.25,-242.8 1247.25,-242.8 1247.25,-236.8 1253.25,-230.8 1259.25,-230.8 1259.25,-230.8 1467.29,-230.8 1467.29,-230.8 1473.29,-230.8 1479.29,-236.8 1479.29,-242.8 1479.29,-242.8 1479.29,-276.2 1479.29,-276.2 1479.29,-282.2 1473.29,-288.2 1467.29,-288.2"/>
<text xml:space="preserve" text-anchor="start" x="1288.27" y="-265.65" font-family="Helvetica,sans-Serif" font-weight="bold" font-size="13.00">create_recall_evaluator</text>
<polygon fill="#87ceeb" stroke="none" points="1258.77,-238 1258.77,-259.5 1467.77,-259.5 1467.77,-238 1258.77,-238"/>
<text xml:space="preserve" text-anchor="start" x="1262.77" y="-243.15" font-family="Helvetica,sans-Serif" font-size="13.00">recall_evaluator : RecallEvaluator</text>
</g>
<!-- 4647794496&#45;&gt;4650098640 -->
<g id="edge27" class="edge">
<title>4647794496&#45;&gt;4650098640</title>
<path fill="none" stroke="#333333" stroke-width="2" d="M1289.33,-229.88C1248.82,-214.2 1198.4,-194.69 1156.15,-178.34"/>
<polygon fill="#333333" stroke="#333333" stroke-width="2" points="1157.59,-175.14 1147.01,-174.8 1155.07,-181.67 1157.59,-175.14"/>
</g>
<!-- 4650095424 -->
<g id="node9" class="node">
<title>4650095424</title>
<path fill="#87ceeb" stroke="black" stroke-width="2" d="M905.41,-843.8C905.41,-843.8 671.12,-843.8 671.12,-843.8 665.12,-843.8 659.12,-837.8 659.12,-831.8 659.12,-831.8 659.12,-798.4 659.12,-798.4 659.12,-792.4 665.12,-786.4 671.12,-786.4 671.12,-786.4 905.41,-786.4 905.41,-786.4 911.41,-786.4 917.41,-792.4 917.41,-798.4 917.41,-798.4 917.41,-831.8 917.41,-831.8 917.41,-837.8 911.41,-843.8 905.41,-843.8"/>
<text xml:space="preserve" text-anchor="start" x="733.89" y="-821.25" font-family="Helvetica,sans-Serif" font-weight="bold" font-size="13.00">encode_passage</text>
<polygon fill="#87ceeb" stroke="none" points="670.64,-793.6 670.64,-815.1 905.89,-815.1 905.89,-793.6 670.64,-793.6"/>
<text xml:space="preserve" text-anchor="start" x="674.64" y="-798.75" font-family="Helvetica,sans-Serif" font-size="13.00">encoded_passage : EncodedPassage</text>
</g>
<!-- 4650097824 -->
<g id="node10" class="node">
<title>4650097824</title>
<path fill="#87ceeb" stroke="black" stroke-width="2" d="M265.91,-497.6C265.91,-497.6 100.62,-497.6 100.62,-497.6 94.62,-497.6 88.62,-491.6 88.62,-485.6 88.62,-485.6 88.62,-452.2 88.62,-452.2 88.62,-446.2 94.62,-440.2 100.62,-440.2 100.62,-440.2 265.91,-440.2 265.91,-440.2 271.91,-440.2 277.91,-446.2 277.91,-452.2 277.91,-452.2 277.91,-485.6 277.91,-485.6 277.91,-491.6 271.91,-497.6 265.91,-497.6"/>
<text xml:space="preserve" text-anchor="start" x="121.77" y="-475.05" font-family="Helvetica,sans-Serif" font-weight="bold" font-size="13.00">build_vector_index</text>
<polygon fill="#87ceeb" stroke="none" points="100.14,-447.4 100.14,-468.9 266.39,-468.9 266.39,-447.4 100.14,-447.4"/>
<text xml:space="preserve" text-anchor="start" x="104.14" y="-452.55" font-family="Helvetica,sans-Serif" font-size="13.00">vector_index : VectorIndex</text>
</g>
<!-- 4650097824&#45;&gt;4650099792 -->
<g id="edge19" class="edge">
<title>4650097824&#45;&gt;4650099792</title>
<path fill="none" stroke="#333333" stroke-width="2" d="M278.78,-445.93C287.73,-443.96 296.66,-442.02 305.27,-440.2 418.56,-416.22 551.32,-390.74 626.74,-376.52"/>
<polygon fill="#333333" stroke="#333333" stroke-width="2" points="627.08,-380.01 636.26,-374.72 625.79,-373.13 627.08,-380.01"/>
</g>
<!-- 4650098112&#45;&gt;4650099792 -->
<g id="edge17" class="edge">
<title>4650098112&#45;&gt;4650099792</title>
<path fill="none" stroke="#333333" stroke-width="2" d="M75.32,-554.81C59.85,-522.9 42.43,-471.56 70.27,-440.2 142.64,-358.7 449.12,-395.71 557.27,-382.2 578.59,-379.54 601.87,-376.53 622.76,-373.79"/>
<polygon fill="#333333" stroke="#333333" stroke-width="2" points="622.96,-377.29 632.41,-372.51 622.04,-370.35 622.96,-377.29"/>
</g>
<!-- 4650097776 -->
<g id="node12" class="node">
<title>4650097776</title>
<path fill="#87ceeb" stroke="black" stroke-width="2" d="M610.04,-497.6C610.04,-497.6 400.5,-497.6 400.5,-497.6 394.5,-497.6 388.5,-491.6 388.5,-485.6 388.5,-485.6 388.5,-452.2 388.5,-452.2 388.5,-446.2 394.5,-440.2 400.5,-440.2 400.5,-440.2 610.04,-440.2 610.04,-440.2 616.04,-440.2 622.04,-446.2 622.04,-452.2 622.04,-452.2 622.04,-485.6 622.04,-485.6 622.04,-491.6 616.04,-497.6 610.04,-497.6"/>
<text xml:space="preserve" text-anchor="start" x="454.64" y="-475.05" font-family="Helvetica,sans-Serif" font-weight="bold" font-size="13.00">create_reranker</text>
<polygon fill="#87ceeb" stroke="none" points="400.02,-447.4 400.02,-468.9 610.52,-468.9 610.52,-447.4 400.02,-447.4"/>
<text xml:space="preserve" text-anchor="start" x="404.02" y="-452.55" font-family="Helvetica,sans-Serif" font-size="13.00">reranker : CrossEncoderReranker</text>
</g>
<!-- 4650097776&#45;&gt;4650099792 -->
<g id="edge18" class="edge">
<title>4650097776&#45;&gt;4650099792</title>
<path fill="none" stroke="#333333" stroke-width="2" d="M555.97,-439.29C585.38,-422.7 621.83,-402.13 648.85,-386.88"/>
<polygon fill="#333333" stroke="#333333" stroke-width="2" points="650.56,-389.94 657.54,-381.97 647.12,-383.84 650.56,-389.94"/>
</g>
<!-- 4650098304 -->
<g id="node13" class="node">
<title>4650098304</title>
<path fill="#87ceeb" stroke="black" stroke-width="2" d="M1169.54,-843.8C1169.54,-843.8 969,-843.8 969,-843.8 963,-843.8 957,-837.8 957,-831.8 957,-831.8 957,-798.4 957,-798.4 957,-792.4 963,-786.4 969,-786.4 969,-786.4 1169.54,-786.4 1169.54,-786.4 1175.54,-786.4 1181.54,-792.4 1181.54,-798.4 1181.54,-798.4 1181.54,-831.8 1181.54,-831.8 1181.54,-837.8 1175.54,-843.8 1169.54,-843.8"/>
<text xml:space="preserve" text-anchor="start" x="1023.52" y="-821.25" font-family="Helvetica,sans-Serif" font-weight="bold" font-size="13.00">encode_query</text>
<polygon fill="#87ceeb" stroke="none" points="968.52,-793.6 968.52,-815.1 1170.02,-815.1 1170.02,-793.6 968.52,-793.6"/>
<text xml:space="preserve" text-anchor="start" x="972.52" y="-798.75" font-family="Helvetica,sans-Serif" font-size="13.00">encoded_query : EncodedQuery</text>
</g>
<!-- 4650098016 -->
<g id="node14" class="node">
<title>4650098016</title>
<path fill="#87ceeb" stroke="black" stroke-width="2" d="M1329.04,-843.8C1329.04,-843.8 1233.5,-843.8 1233.5,-843.8 1227.5,-843.8 1221.5,-837.8 1221.5,-831.8 1221.5,-831.8 1221.5,-798.4 1221.5,-798.4 1221.5,-792.4 1227.5,-786.4 1233.5,-786.4 1233.5,-786.4 1329.04,-786.4 1329.04,-786.4 1335.04,-786.4 1341.04,-792.4 1341.04,-798.4 1341.04,-798.4 1341.04,-831.8 1341.04,-831.8 1341.04,-837.8 1335.04,-843.8 1329.04,-843.8"/>
<text xml:space="preserve" text-anchor="start" x="1237.02" y="-821.25" font-family="Helvetica,sans-Serif" font-weight="bold" font-size="13.00">extract_query</text>
<polygon fill="#87ceeb" stroke="none" points="1233.02,-793.6 1233.02,-815.1 1329.52,-815.1 1329.52,-793.6 1233.02,-793.6"/>
<text xml:space="preserve" text-anchor="start" x="1240.77" y="-798.75" font-family="Helvetica,sans-Serif" font-size="13.00">query : Query</text>
</g>
<!-- 4650098352 -->
<g id="node15" class="node">
<title>4650098352</title>
<path fill="#87ceeb" stroke="black" stroke-width="2" d="M1559.91,-843.8C1559.91,-843.8 1388.62,-843.8 1388.62,-843.8 1382.62,-843.8 1376.62,-837.8 1376.62,-831.8 1376.62,-831.8 1376.62,-798.4 1376.62,-798.4 1376.62,-792.4 1382.62,-786.4 1388.62,-786.4 1388.62,-786.4 1559.91,-786.4 1559.91,-786.4 1565.91,-786.4 1571.91,-792.4 1571.91,-798.4 1571.91,-798.4 1571.91,-831.8 1571.91,-831.8 1571.91,-837.8 1565.91,-843.8 1559.91,-843.8"/>
<text xml:space="preserve" text-anchor="start" x="1425.89" y="-821.25" font-family="Helvetica,sans-Serif" font-weight="bold" font-size="13.00">retrieve_vector</text>
<polygon fill="#87ceeb" stroke="none" points="1388.14,-793.6 1388.14,-815.1 1560.39,-815.1 1560.39,-793.6 1388.14,-793.6"/>
<text xml:space="preserve" text-anchor="start" x="1392.14" y="-798.75" font-family="Helvetica,sans-Serif" font-size="13.00">vector_hits : List[SearchHit]</text>
</g>
<!-- 4650098400 -->
<g id="node16" class="node">
<title>4650098400</title>
<path fill="#87ceeb" stroke="black" stroke-width="2" d="M1787.04,-843.8C1787.04,-843.8 1619.5,-843.8 1619.5,-843.8 1613.5,-843.8 1607.5,-837.8 1607.5,-831.8 1607.5,-831.8 1607.5,-798.4 1607.5,-798.4 1607.5,-792.4 1613.5,-786.4 1619.5,-786.4 1619.5,-786.4 1787.04,-786.4 1787.04,-786.4 1793.04,-786.4 1799.04,-792.4 1799.04,-798.4 1799.04,-798.4 1799.04,-831.8 1799.04,-831.8 1799.04,-837.8 1793.04,-843.8 1787.04,-843.8"/>
<text xml:space="preserve" text-anchor="start" x="1657.89" y="-821.25" font-family="Helvetica,sans-Serif" font-weight="bold" font-size="13.00">retrieve_bm25</text>
<polygon fill="#87ceeb" stroke="none" points="1619.02,-793.6 1619.02,-815.1 1787.52,-815.1 1787.52,-793.6 1619.02,-793.6"/>
<text xml:space="preserve" text-anchor="start" x="1623.02" y="-798.75" font-family="Helvetica,sans-Serif" font-size="13.00">bm25_hits : List[SearchHit]</text>
</g>
<!-- 4650097248 -->
<g id="node17" class="node">
<title>4650097248</title>
<path fill="#87ceeb" stroke="black" stroke-width="2" d="M2015.04,-843.8C2015.04,-843.8 1847.5,-843.8 1847.5,-843.8 1841.5,-843.8 1835.5,-837.8 1835.5,-831.8 1835.5,-831.8 1835.5,-798.4 1835.5,-798.4 1835.5,-792.4 1841.5,-786.4 1847.5,-786.4 1847.5,-786.4 2015.04,-786.4 2015.04,-786.4 2021.04,-786.4 2027.04,-792.4 2027.04,-798.4 2027.04,-798.4 2027.04,-831.8 2027.04,-831.8 2027.04,-837.8 2021.04,-843.8 2015.04,-843.8"/>
<text xml:space="preserve" text-anchor="start" x="1891.52" y="-821.25" font-family="Helvetica,sans-Serif" font-weight="bold" font-size="13.00">fuse_results</text>
<polygon fill="#87ceeb" stroke="none" points="1847.02,-793.6 1847.02,-815.1 2015.52,-815.1 2015.52,-793.6 1847.02,-793.6"/>
<text xml:space="preserve" text-anchor="start" x="1851.02" y="-798.75" font-family="Helvetica,sans-Serif" font-size="13.00">fused_hits : List[SearchHit]</text>
</g>
<!-- 4650096960 -->
<g id="node18" class="node">
<title>4650096960</title>
<path fill="#87ceeb" stroke="black" stroke-width="2" d="M2263.16,-843.8C2263.16,-843.8 2075.38,-843.8 2075.38,-843.8 2069.38,-843.8 2063.38,-837.8 2063.38,-831.8 2063.38,-831.8 2063.38,-798.4 2063.38,-798.4 2063.38,-792.4 2069.38,-786.4 2075.38,-786.4 2075.38,-786.4 2263.16,-786.4 2263.16,-786.4 2269.16,-786.4 2275.16,-792.4 2275.16,-798.4 2275.16,-798.4 2275.16,-831.8 2275.16,-831.8 2275.16,-837.8 2269.16,-843.8 2263.16,-843.8"/>
<text xml:space="preserve" text-anchor="start" x="2083.77" y="-821.25" font-family="Helvetica,sans-Serif" font-weight="bold" font-size="13.00">rerank_with_crossencoder</text>
<polygon fill="#87ceeb" stroke="none" points="2074.89,-793.6 2074.89,-815.1 2263.64,-815.1 2263.64,-793.6 2074.89,-793.6"/>
<text xml:space="preserve" text-anchor="start" x="2078.89" y="-798.75" font-family="Helvetica,sans-Serif" font-size="13.00">reranked_hits : List[SearchHit]</text>
</g>
<!-- 4650099264 -->
<g id="node19" class="node">
<title>4650099264</title>
<path fill="#87ceeb" stroke="black" stroke-width="2" d="M2495.29,-843.8C2495.29,-843.8 2323.25,-843.8 2323.25,-843.8 2317.25,-843.8 2311.25,-837.8 2311.25,-831.8 2311.25,-831.8 2311.25,-798.4 2311.25,-798.4 2311.25,-792.4 2317.25,-786.4 2323.25,-786.4 2323.25,-786.4 2495.29,-786.4 2495.29,-786.4 2501.29,-786.4 2507.29,-792.4 2507.29,-798.4 2507.29,-798.4 2507.29,-831.8 2507.29,-831.8 2507.29,-837.8 2501.29,-843.8 2495.29,-843.8"/>
<text xml:space="preserve" text-anchor="start" x="2347.02" y="-821.25" font-family="Helvetica,sans-Serif" font-weight="bold" font-size="13.00">hits_to_predictions</text>
<polygon fill="#87ceeb" stroke="none" points="2322.77,-793.6 2322.77,-815.1 2495.77,-815.1 2495.77,-793.6 2322.77,-793.6"/>
<text xml:space="preserve" text-anchor="start" x="2326.77" y="-798.75" font-family="Helvetica,sans-Serif" font-size="13.00">predictions : List[Prediction]</text>
</g>
<!-- 4650093984 -->
<g id="node20" class="node">
<title>4650093984</title>
<path fill="#87ceeb" stroke="black" stroke-width="2" d="M934.79,-288.2C934.79,-288.2 741.75,-288.2 741.75,-288.2 735.75,-288.2 729.75,-282.2 729.75,-276.2 729.75,-276.2 729.75,-242.8 729.75,-242.8 729.75,-236.8 735.75,-230.8 741.75,-230.8 741.75,-230.8 934.79,-230.8 934.79,-230.8 940.79,-230.8 946.79,-236.8 946.79,-242.8 946.79,-242.8 946.79,-276.2 946.79,-276.2 946.79,-282.2 940.79,-288.2 934.79,-288.2"/>
<text xml:space="preserve" text-anchor="start" x="777.89" y="-265.65" font-family="Helvetica,sans-Serif" font-weight="bold" font-size="13.00">flatten_predictions</text>
<polygon fill="#87ceeb" stroke="none" points="741.27,-238 741.27,-259.5 935.27,-259.5 935.27,-238 741.27,-238"/>
<text xml:space="preserve" text-anchor="start" x="745.27" y="-243.15" font-family="Helvetica,sans-Serif" font-size="13.00">all_predictions : List[Prediction]</text>
</g>
<!-- 4650093984&#45;&gt;4650097344 -->
<g id="edge24" class="edge">
<title>4650093984&#45;&gt;4650097344</title>
<path fill="none" stroke="#333333" stroke-width="2" d="M838.27,-229.88C838.27,-216.72 838.27,-200.86 838.27,-186.43"/>
<polygon fill="#333333" stroke="#333333" stroke-width="2" points="841.77,-186.73 838.27,-176.73 834.77,-186.73 841.77,-186.73"/>
</g>
<!-- 4650093984&#45;&gt;4650098640 -->
<g id="edge26" class="edge">
<title>4650093984&#45;&gt;4650098640</title>
<path fill="none" stroke="#333333" stroke-width="2" d="M896.81,-229.88C928.27,-214.51 967.28,-195.44 1000.33,-179.29"/>
<polygon fill="#333333" stroke="#333333" stroke-width="2" points="1001.58,-182.57 1009.03,-175.04 998.5,-176.28 1001.58,-182.57"/>
</g>
<!-- 4650098496 -->
<g id="node23" class="node">
<title>4650098496</title>
<path fill="#87ceeb" stroke="black" stroke-width="2" d="M932.16,-57.4C932.16,-57.4 744.38,-57.4 744.38,-57.4 738.38,-57.4 732.38,-51.4 732.38,-45.4 732.38,-45.4 732.38,-12 732.38,-12 732.38,-6 738.38,0 744.38,0 744.38,0 932.16,0 932.16,0 938.16,0 944.16,-6 944.16,-12 944.16,-12 944.16,-45.4 944.16,-45.4 944.16,-51.4 938.16,-57.4 932.16,-57.4"/>
<text xml:space="preserve" text-anchor="start" x="747.89" y="-34.85" font-family="Helvetica,sans-Serif" font-weight="bold" font-size="13.00">combine_evaluation_results</text>
<polygon fill="#87ceeb" stroke="none" points="743.89,-7.2 743.89,-28.7 932.64,-28.7 932.64,-7.2 743.89,-7.2"/>
<text xml:space="preserve" text-anchor="start" x="767.77" y="-12.35" font-family="Helvetica,sans-Serif" font-size="13.00">evaluation_results : dict</text>
</g>
<!-- 4650097344&#45;&gt;4650098496 -->
<g id="edge28" class="edge">
<title>4650097344&#45;&gt;4650098496</title>
<path fill="none" stroke="#333333" stroke-width="2" d="M838.27,-114.48C838.27,-101.32 838.27,-85.46 838.27,-71.03"/>
<polygon fill="#333333" stroke="#333333" stroke-width="2" points="841.77,-71.33 838.27,-61.33 834.77,-71.33 841.77,-71.33"/>
</g>
<!-- 4650098640&#45;&gt;4650098496 -->
<g id="edge29" class="edge">
<title>4650098640&#45;&gt;4650098496</title>
<path fill="none" stroke="#333333" stroke-width="2" d="M1011.73,-114.48C980.27,-99.11 941.26,-80.04 908.21,-63.89"/>
<polygon fill="#333333" stroke="#333333" stroke-width="2" points="910.04,-60.88 899.51,-59.64 906.96,-67.17 910.04,-60.88"/>
</g>
<!-- 4312927536 -->
<g id="node24" class="node">
<title>4312927536</title>
<polygon fill="#90ee90" stroke="black" stroke-width="2" stroke-dasharray="5,2" points="623.16,-833.1 497.38,-833.1 497.38,-797.1 623.16,-797.1 623.16,-833.1"/>
<text xml:space="preserve" text-anchor="middle" x="560.27" y="-809.5" font-family="Helvetica,sans-Serif" font-size="13.00">model_name : str</text>
</g>
<!-- 4312927536&#45;&gt;4553652128 -->
<g id="edge1" class="edge">
<title>4312927536&#45;&gt;4553652128</title>
<path fill="none" stroke="#666666" stroke-width="2" d="M560.27,-796.13C560.27,-781.66 560.27,-760.74 560.27,-742.17"/>
<polygon fill="#666666" stroke="#666666" stroke-width="2" points="563.77,-742.21 560.27,-732.21 556.77,-742.21 563.77,-742.21"/>
</g>
<!-- 4312948080 -->
<g id="node25" class="node">
<title>4312948080</title>
<polygon fill="#90ee90" stroke="black" stroke-width="2" stroke-dasharray="5,2" points="539.29,-382.2 447.25,-382.2 447.25,-346.2 539.29,-346.2 539.29,-382.2"/>
<text xml:space="preserve" text-anchor="middle" x="493.27" y="-358.6" font-family="Helvetica,sans-Serif" font-size="13.00">ndcg_k : int</text>
</g>
<!-- 4312948080&#45;&gt;4647784560 -->
<g id="edge2" class="edge">
<title>4312948080&#45;&gt;4647784560</title>
<path fill="none" stroke="#666666" stroke-width="2" d="M508.08,-345.31C518.71,-332.46 533.44,-314.66 546.67,-298.68"/>
<polygon fill="#666666" stroke="#666666" stroke-width="2" points="549.05,-301.3 552.73,-291.36 543.65,-296.84 549.05,-301.3"/>
</g>
<!-- 4312948080&#45;&gt;4650098496 -->
<g id="edge30" class="edge">
<title>4312948080&#45;&gt;4650098496</title>
<path fill="none" stroke="#666666" stroke-width="2" d="M477.38,-345.49C455.74,-319.11 422.18,-268.55 445.27,-230.8 504.49,-133.97 626.72,-81.87 719.24,-55.15"/>
<polygon fill="#666666" stroke="#666666" stroke-width="2" points="719.92,-58.6 728.6,-52.53 718.02,-51.86 719.92,-58.6"/>
</g>
<!-- 4313047600 -->
<g id="node26" class="node">
<title>4313047600</title>
<polygon fill="#90ee90" stroke="black" stroke-width="2" stroke-dasharray="5,2" points="2619.04,-833.1 2543.5,-833.1 2543.5,-797.1 2619.04,-797.1 2619.04,-833.1"/>
<text xml:space="preserve" text-anchor="middle" x="2581.27" y="-809.5" font-family="Helvetica,sans-Serif" font-size="13.00">rerank_k</text>
</g>
<!-- 4312947504 -->
<g id="node27" class="node">
<title>4312947504</title>
<polygon fill="#90ee90" stroke="black" stroke-width="2" stroke-dasharray="5,2" points="1134.04,-602.3 1028.5,-602.3 1028.5,-566.3 1134.04,-566.3 1134.04,-602.3"/>
<text xml:space="preserve" text-anchor="middle" x="1081.27" y="-578.7" font-family="Helvetica,sans-Serif" font-size="13.00">rrf_k : int = 60</text>
</g>
<!-- 4312947504&#45;&gt;4647783360 -->
<g id="edge4" class="edge">
<title>4312947504&#45;&gt;4647783360</title>
<path fill="none" stroke="#666666" stroke-width="2" d="M1081.27,-565.33C1081.27,-550.86 1081.27,-529.94 1081.27,-511.37"/>
<polygon fill="#666666" stroke="#666666" stroke-width="2" points="1084.77,-511.41 1081.27,-501.41 1077.77,-511.41 1084.77,-511.41"/>
</g>
<!-- 4312953888 -->
<g id="node28" class="node">
<title>4312953888</title>
<polygon fill="#90ee90" stroke="black" stroke-width="2" stroke-dasharray="5,2" points="2711.29,-833.1 2655.25,-833.1 2655.25,-797.1 2711.29,-797.1 2711.29,-833.1"/>
<text xml:space="preserve" text-anchor="middle" x="2683.27" y="-809.5" font-family="Helvetica,sans-Serif" font-size="13.00">top_k</text>
</g>
<!-- 4312978224 -->
<g id="node29" class="node">
<title>4312978224</title>
<polygon fill="#90ee90" stroke="black" stroke-width="2" stroke-dasharray="5,2" points="1112.29,-717.7 972.25,-717.7 972.25,-681.7 1112.29,-681.7 1112.29,-717.7"/>
<text xml:space="preserve" text-anchor="middle" x="1042.27" y="-694.1" font-family="Helvetica,sans-Serif" font-size="13.00">examples_path : str</text>
</g>
<!-- 4312978224&#45;&gt;4645462400 -->
<g id="edge12" class="edge">
<title>4312978224&#45;&gt;4645462400</title>
<path fill="none" stroke="#666666" stroke-width="2" d="M1015.17,-680.73C991.02,-664.71 954.95,-640.79 924.97,-620.91"/>
<polygon fill="#666666" stroke="#666666" stroke-width="2" points="927.02,-618.07 916.75,-615.46 923.15,-623.9 927.02,-618.07"/>
</g>
<!-- 4312978224&#45;&gt;4553652176 -->
<g id="edge5" class="edge">
<title>4312978224&#45;&gt;4553652176</title>
<path fill="none" stroke="#666666" stroke-width="2" d="M1077.38,-680.79C1102.45,-666.08 1134.71,-642.84 1152.27,-613 1178.59,-568.26 1166.26,-549.35 1170.27,-497.6 1172.24,-472.17 1175.16,-465.24 1170.27,-440.2 1160.44,-389.87 1136.47,-335.83 1118.67,-300.3"/>
<polygon fill="#666666" stroke="#666666" stroke-width="2" points="1121.93,-299.01 1114.27,-291.69 1115.7,-302.19 1121.93,-299.01"/>
</g>
<!-- 4312979248 -->
<g id="node30" class="node">
<title>4312979248</title>
<polygon fill="#90ee90" stroke="black" stroke-width="2" stroke-dasharray="5,2" points="1437.04,-382.2 1289.5,-382.2 1289.5,-346.2 1437.04,-346.2 1437.04,-382.2"/>
<text xml:space="preserve" text-anchor="middle" x="1363.27" y="-358.6" font-family="Helvetica,sans-Serif" font-size="13.00">recall_k_list : List[int]</text>
</g>
<!-- 4312979248&#45;&gt;4647794496 -->
<g id="edge3" class="edge">
<title>4312979248&#45;&gt;4647794496</title>
<path fill="none" stroke="#666666" stroke-width="2" d="M1363.27,-345.31C1363.27,-333.31 1363.27,-316.99 1363.27,-301.87"/>
<polygon fill="#666666" stroke="#666666" stroke-width="2" points="1366.77,-302.06 1363.27,-292.06 1359.77,-302.06 1366.77,-302.06"/>
</g>
<!-- 4312980016 -->
<g id="node31" class="node">
<title>4312980016</title>
<polygon fill="#90ee90" stroke="black" stroke-width="2" stroke-dasharray="5,2" points="603.04,-602.3 419.5,-602.3 419.5,-566.3 603.04,-566.3 603.04,-602.3"/>
<text xml:space="preserve" text-anchor="middle" x="511.27" y="-578.7" font-family="Helvetica,sans-Serif" font-size="13.00">reranker_model_name : str</text>
</g>
<!-- 4312980016&#45;&gt;4650097776 -->
<g id="edge11" class="edge">
<title>4312980016&#45;&gt;4650097776</title>
<path fill="none" stroke="#666666" stroke-width="2" d="M510.32,-565.33C509.55,-550.86 508.45,-529.94 507.46,-511.37"/>
<polygon fill="#666666" stroke="#666666" stroke-width="2" points="510.96,-511.21 506.94,-501.41 503.97,-511.58 510.96,-511.21"/>
</g>
<!-- 4650096576&#45;&gt;4650097824 -->
<g id="edge9" class="edge">
<title>4650096576&#45;&gt;4650097824</title>
<path fill="none" stroke="#333333" stroke-width="2" d="M305.78,-567.05C285.87,-551.27 254.96,-526.75 229.16,-506.29"/>
<polygon fill="#333333" stroke="#333333" stroke-width="2" points="231.58,-503.74 221.57,-500.27 227.23,-509.23 231.58,-503.74"/>
</g>
<!-- 4650096576&#45;&gt;4650097776 -->
<g id="edge10" class="edge">
<title>4650096576&#45;&gt;4650097776</title>
<path fill="none" stroke="#333333" stroke-width="2" d="M350.78,-567.77C375.99,-551.8 416.11,-526.38 449.15,-505.45"/>
<polygon fill="#333333" stroke="#333333" stroke-width="2" points="450.92,-508.47 457.5,-500.16 447.18,-502.56 450.92,-508.47"/>
</g>
<!-- 4650096576&#45;&gt;4650099792 -->
<g id="edge15" class="edge">
<title>4650096576&#45;&gt;4650099792</title>
<path fill="none" stroke="#333333" stroke-width="2" d="M326.36,-565.92C327.52,-535.77 334.41,-473.77 370.27,-440.2 406.23,-406.54 540.01,-383.96 621.85,-372.97"/>
<polygon fill="#333333" stroke="#333333" stroke-width="2" points="622.05,-376.47 631.51,-371.7 621.14,-369.53 622.05,-376.47"/>
</g>
<!-- 4650099648&#45;&gt;4650099792 -->
<g id="edge16" class="edge">
<title>4650099648&#45;&gt;4650099792</title>
<path fill="none" stroke="#333333" stroke-width="2" d="M710.52,-450.48C706.37,-435.26 700.26,-412.86 695.35,-394.83"/>
<polygon fill="#333333" stroke="#333333" stroke-width="2" points="698.75,-394.01 692.75,-385.28 692,-395.85 698.75,-394.01"/>
</g>
<!-- 4650099792&#45;&gt;4650093984 -->
<g id="edge21" class="edge">
<title>4650099792&#45;&gt;4650093984</title>
<path fill="none" stroke="#333333" stroke-width="2" d="M710.53,-347.38C730.44,-333.84 759.85,-313.84 785.43,-296.44"/>
<polygon fill="#333333" stroke="#333333" stroke-width="2" points="787.32,-299.39 793.62,-290.87 783.38,-293.6 787.32,-299.39"/>
</g>
<!-- group_4650099792 -->
<g id="node35" class="node">
<title>group_4650099792</title>
<ellipse fill="none" stroke="black" cx="891.27" cy="-468.9" rx="83.08" ry="18"/>
<text xml:space="preserve" text-anchor="middle" x="891.27" y="-463.85" font-family="Times,serif" font-size="14.00">group_4650099792</text>
</g>
<!-- group_4650099792&#45;&gt;4650099792 -->
<g id="edge32" class="edge">
<title>group_4650099792&#45;&gt;4650099792</title>
<path fill="none" stroke="#666666" stroke-width="2" d="M859.39,-451.85C824.03,-434.05 766.86,-405.27 728.21,-385.81"/>
<polygon fill="#666666" stroke="#666666" stroke-width="2" points="729.82,-382.7 719.31,-381.33 726.67,-388.95 729.82,-382.7"/>
</g>
</g>
</svg>
