<?xml version="1.0" encoding="UTF-8" standalone="no"?>
<!DOCTYPE svg PUBLIC "-//W3C//DTD SVG 1.1//EN"
 "http://www.w3.org/Graphics/SVG/1.1/DTD/svg11.dtd">
<!-- Generated by graphviz version 13.1.2 (20250808.2320)
 -->
<!-- Pages: 1 -->
<svg width="160pt" height="275pt"
 viewBox="0.00 0.00 160.00 275.00" xmlns="http://www.w3.org/2000/svg" xmlns:xlink="http://www.w3.org/1999/xlink">
<g id="graph0" class="graph" transform="scale(1 1) rotate(0) translate(4.32 271.12)">
<polygon fill="#ffffff" stroke="none" points="-4.32,4.32 -4.32,-271.12 156.11,-271.12 156.11,4.32 -4.32,4.32"/>
<!-- 4650100272 -->
<g id="node1" class="node">
<title>4650100272</title>
<path fill="#87ceeb" stroke="black" stroke-width="2" d="M131.16,-172.8C131.16,-172.8 20.63,-172.8 20.63,-172.8 14.62,-172.8 8.62,-166.8 8.62,-160.8 8.62,-160.8 8.62,-127.4 8.62,-127.4 8.62,-121.4 14.62,-115.4 20.62,-115.4 20.62,-115.4 131.16,-115.4 131.16,-115.4 137.16,-115.4 143.16,-121.4 143.16,-127.4 143.16,-127.4 143.16,-160.8 143.16,-160.8 143.16,-166.8 137.16,-172.8 131.16,-172.8"/>
<text xml:space="preserve" text-anchor="start" x="24.14" y="-150.25" font-family="Helvetica,sans-Serif" font-weight="bold" font-size="13.00">clean_text_intro</text>
<polygon fill="#87ceeb" stroke="none" points="20.14,-122.6 20.14,-144.1 131.64,-144.1 131.64,-122.6 20.14,-122.6"/>
<text xml:space="preserve" text-anchor="start" x="24.52" y="-127.75" font-family="Helvetica,sans-Serif" font-size="13.00">cleaned_text : str</text>
</g>
<!-- 4650100320 -->
<g id="node2" class="node">
<title>4650100320</title>
<path fill="#87ceeb" stroke="black" stroke-width="2" d="M139.79,-57.4C139.79,-57.4 12,-57.4 12,-57.4 6,-57.4 0,-51.4 0,-45.4 0,-45.4 0,-12 0,-12 0,-6 6,0 12,0 12,0 139.79,0 139.79,0 145.79,0 151.79,-6 151.79,-12 151.79,-12 151.79,-45.4 151.79,-45.4 151.79,-51.4 145.79,-57.4 139.79,-57.4"/>
<text xml:space="preserve" text-anchor="start" x="15.52" y="-34.85" font-family="Helvetica,sans-Serif" font-weight="bold" font-size="13.00">count_words_intro</text>
<polygon fill="#87ceeb" stroke="none" points="11.52,-7.2 11.52,-28.7 140.27,-28.7 140.27,-7.2 11.52,-7.2"/>
<text xml:space="preserve" text-anchor="start" x="28.27" y="-12.35" font-family="Helvetica,sans-Serif" font-size="13.00">word_count : int</text>
</g>
<!-- 4650100272&#45;&gt;4650100320 -->
<g id="edge2" class="edge">
<title>4650100272&#45;&gt;4650100320</title>
<path fill="none" stroke="#333333" stroke-width="2" d="M75.89,-114.48C75.89,-101.32 75.89,-85.46 75.89,-71.03"/>
<polygon fill="#333333" stroke="#333333" stroke-width="2" points="79.4,-71.33 75.9,-61.33 72.4,-71.33 79.4,-71.33"/>
</g>
<!-- 4312950816 -->
<g id="node3" class="node">
<title>4312950816</title>
<polygon fill="#90ee90" stroke="black" stroke-width="2" stroke-dasharray="5,2" points="126.04,-266.8 25.75,-266.8 25.75,-230.8 126.04,-230.8 126.04,-266.8"/>
<text xml:space="preserve" text-anchor="middle" x="75.89" y="-243.2" font-family="Helvetica,sans-Serif" font-size="13.00">passage : str</text>
</g>
<!-- 4312950816&#45;&gt;4650100272 -->
<g id="edge1" class="edge">
<title>4312950816&#45;&gt;4650100272</title>
<path fill="none" stroke="#666666" stroke-width="2" d="M75.89,-229.91C75.89,-217.91 75.89,-201.59 75.89,-186.47"/>
<polygon fill="#666666" stroke="#666666" stroke-width="2" points="79.4,-186.66 75.9,-176.66 72.4,-186.66 79.4,-186.66"/>
</g>
</g>
</svg>
