<?xml version="1.0" encoding="UTF-8" standalone="no"?>
<!DOCTYPE svg PUBLIC "-//W3C//DTD SVG 1.1//EN"
 "http://www.w3.org/Graphics/SVG/1.1/DTD/svg11.dtd">
<!-- Generated by graphviz version 13.1.2 (20250808.2320)
 -->
<!-- Pages: 1 -->
<svg width="1535pt" height="883pt"
 viewBox="0.00 0.00 1535.00 883.00" xmlns="http://www.w3.org/2000/svg" xmlns:xlink="http://www.w3.org/1999/xlink">
<g id="graph0" class="graph" transform="scale(1 1) rotate(0) translate(4.32 878.52)">
<polygon fill="#ffffff" stroke="none" points="-4.32,4.32 -4.32,-878.52 1530.61,-878.52 1530.61,4.32 -4.32,4.32"/>
<!-- 4641618208 -->
<g id="node1" class="node">
<title>4641618208</title>
<path fill="#87ceeb" stroke="black" stroke-width="2" d="M298.79,-758.8C298.79,-758.8 141.75,-758.8 141.75,-758.8 135.75,-758.8 129.75,-752.8 129.75,-746.8 129.75,-746.8 129.75,-713.4 129.75,-713.4 129.75,-707.4 135.75,-701.4 141.75,-701.4 141.75,-701.4 298.79,-701.4 298.79,-701.4 304.79,-701.4 310.79,-707.4 310.79,-713.4 310.79,-713.4 310.79,-746.8 310.79,-746.8 310.79,-752.8 304.79,-758.8 298.79,-758.8"/>
<text xml:space="preserve" text-anchor="start" x="171.89" y="-736.25" font-family="Helvetica,sans-Serif" font-weight="bold" font-size="13.00">load_passages</text>
<polygon fill="#87ceeb" stroke="none" points="141.27,-708.6 141.27,-730.1 299.27,-730.1 299.27,-708.6 141.27,-708.6"/>
<text xml:space="preserve" text-anchor="start" x="145.27" y="-713.75" font-family="Helvetica,sans-Serif" font-size="13.00">passages : List[Passage]</text>
</g>
<!-- 4650096576 -->
<g id="node9" class="node">
<title>4650096576</title>
<path fill="#dda0dd" stroke="black" stroke-width="2" d="M427.66,-643.4C427.66,-643.4 230.88,-643.4 230.88,-643.4 224.88,-643.4 218.88,-637.4 218.88,-631.4 218.88,-631.4 218.88,-595 218.88,-595 218.88,-589 224.88,-583 230.88,-583 230.88,-583 427.66,-583 427.66,-583 433.66,-583 439.66,-589 439.66,-595 439.66,-595 439.66,-631.4 439.66,-631.4 439.66,-637.4 433.66,-643.4 427.66,-643.4"/>
<text xml:space="preserve" text-anchor="start" x="234.39" y="-620.85" font-family="Helvetica,sans-Serif" font-weight="bold" font-size="13.00">encode_passages_mapped</text>
<text xml:space="preserve" text-anchor="start" x="409.14" y="-620.85" font-family="Helvetica,sans-Serif" font-size="13.00"> ⚙</text>
<polygon fill="#dda0dd" stroke="none" points="230.39,-590.2 230.39,-611.7 428.14,-611.7 428.14,-590.2 230.39,-590.2"/>
<text xml:space="preserve" text-anchor="start" x="270.77" y="-595.35" font-family="Helvetica,sans-Serif" font-size="13.00">encoded_passages</text>
</g>
<!-- 4641618208&#45;&gt;4650096576 -->
<g id="edge7" class="edge">
<title>4641618208&#45;&gt;4650096576</title>
<path fill="none" stroke="#333333" stroke-width="2" d="M247.49,-700.4C260.97,-686.2 277.44,-668.84 292.05,-653.43"/>
<polygon fill="#333333" stroke="#333333" stroke-width="2" points="294.45,-655.99 298.79,-646.33 289.37,-651.18 294.45,-655.99"/>
</g>
<!-- 4650098112 -->
<g id="node11" class="node">
<title>4650098112</title>
<path fill="#87ceeb" stroke="black" stroke-width="2" d="M170.54,-641.9C170.54,-641.9 12,-641.9 12,-641.9 6,-641.9 0,-635.9 0,-629.9 0,-629.9 0,-596.5 0,-596.5 0,-590.5 6,-584.5 12,-584.5 12,-584.5 170.54,-584.5 170.54,-584.5 176.54,-584.5 182.54,-590.5 182.54,-596.5 182.54,-596.5 182.54,-629.9 182.54,-629.9 182.54,-635.9 176.54,-641.9 170.54,-641.9"/>
<text xml:space="preserve" text-anchor="start" x="32.77" y="-619.35" font-family="Helvetica,sans-Serif" font-weight="bold" font-size="13.00">build_bm25_index</text>
<polygon fill="#87ceeb" stroke="none" points="11.52,-591.7 11.52,-613.2 171.02,-613.2 171.02,-591.7 11.52,-591.7"/>
<text xml:space="preserve" text-anchor="start" x="15.52" y="-596.85" font-family="Helvetica,sans-Serif" font-size="13.00">bm25_index : BM25Index</text>
</g>
<!-- 4641618208&#45;&gt;4650098112 -->
<g id="edge6" class="edge">
<title>4641618208&#45;&gt;4650098112</title>
<path fill="none" stroke="#333333" stroke-width="2" d="M188.05,-700.4C171.3,-685.48 150.64,-667.08 132.71,-651.11"/>
<polygon fill="#333333" stroke="#333333" stroke-width="2" points="135.13,-648.58 125.34,-644.55 130.48,-653.81 135.13,-648.58"/>
</g>
<!-- group_4641618208 -->
<g id="node2" class="node">
<title>group_4641618208</title>
<polygon fill="#90ee90" stroke="black" stroke-width="2" points="286.04,-874.2 154.5,-874.2 154.5,-816.8 286.04,-816.8 286.04,-874.2"/>
<text xml:space="preserve" text-anchor="start" x="170.02" y="-850.65" font-family="Helvetica,sans-Serif" font-size="13.00">corpus_path : str</text>
<text xml:space="preserve" text-anchor="start" x="184.64" y="-829.15" font-family="Helvetica,sans-Serif" font-size="13.00">limit : int = 0</text>
</g>
<!-- group_4641618208&#45;&gt;4641618208 -->
<g id="edge31" class="edge">
<title>group_4641618208&#45;&gt;4641618208</title>
<path fill="none" stroke="#666666" stroke-width="2" d="M220.27,-815.88C220.27,-802.72 220.27,-786.86 220.27,-772.43"/>
<polygon fill="#666666" stroke="#666666" stroke-width="2" points="223.77,-772.73 220.27,-762.73 216.77,-772.73 223.77,-772.73"/>
</g>
<!-- 4645462400 -->
<g id="node3" class="node">
<title>4645462400</title>
<path fill="#87ceeb" stroke="black" stroke-width="2" d="M1005.79,-641.9C1005.79,-641.9 878.75,-641.9 878.75,-641.9 872.75,-641.9 866.75,-635.9 866.75,-629.9 866.75,-629.9 866.75,-596.5 866.75,-596.5 866.75,-590.5 872.75,-584.5 878.75,-584.5 878.75,-584.5 1005.79,-584.5 1005.79,-584.5 1011.79,-584.5 1017.79,-590.5 1017.79,-596.5 1017.79,-596.5 1017.79,-629.9 1017.79,-629.9 1017.79,-635.9 1011.79,-641.9 1005.79,-641.9"/>
<text xml:space="preserve" text-anchor="start" x="900.64" y="-619.35" font-family="Helvetica,sans-Serif" font-weight="bold" font-size="13.00">load_queries</text>
<polygon fill="#87ceeb" stroke="none" points="878.27,-591.7 878.27,-613.2 1006.27,-613.2 1006.27,-591.7 878.27,-591.7"/>
<text xml:space="preserve" text-anchor="start" x="882.27" y="-596.85" font-family="Helvetica,sans-Serif" font-size="13.00">queries : List[Query]</text>
</g>
<!-- 4650099648 -->
<g id="node13" class="node">
<title>4650099648</title>
<path fill="#dda0dd" stroke="black" stroke-width="2" d="M912.91,-525C912.91,-525 729.62,-525 729.62,-525 723.62,-525 717.62,-519 717.62,-513 717.62,-513 717.62,-476.6 717.62,-476.6 717.62,-470.6 723.62,-464.6 729.62,-464.6 729.62,-464.6 912.91,-464.6 912.91,-464.6 918.91,-464.6 924.91,-470.6 924.91,-476.6 924.91,-476.6 924.91,-513 924.91,-513 924.91,-519 918.91,-525 912.91,-525"/>
<text xml:space="preserve" text-anchor="start" x="733.14" y="-502.45" font-family="Helvetica,sans-Serif" font-weight="bold" font-size="13.00">encode_queries_mapped</text>
<text xml:space="preserve" text-anchor="start" x="894.39" y="-502.45" font-family="Helvetica,sans-Serif" font-size="13.00"> ⚙</text>
<polygon fill="#dda0dd" stroke="none" points="729.14,-471.8 729.14,-493.3 913.39,-493.3 913.39,-471.8 729.14,-471.8"/>
<text xml:space="preserve" text-anchor="start" x="769.52" y="-476.95" font-family="Helvetica,sans-Serif" font-size="13.00">encoded_queries</text>
</g>
<!-- 4645462400&#45;&gt;4650099648 -->
<g id="edge14" class="edge">
<title>4645462400&#45;&gt;4650099648</title>
<path fill="none" stroke="#333333" stroke-width="2" d="M912.67,-583.73C897.2,-568.85 878.05,-550.43 861.29,-534.29"/>
<polygon fill="#333333" stroke="#333333" stroke-width="2" points="864.07,-532.11 854.43,-527.7 859.21,-537.16 864.07,-532.11"/>
</g>
<!-- 4553652176 -->
<g id="node4" class="node">
<title>4553652176</title>
<path fill="#87ceeb" stroke="black" stroke-width="2" d="M1246.41,-288.2C1246.41,-288.2 1042.12,-288.2 1042.12,-288.2 1036.12,-288.2 1030.12,-282.2 1030.12,-276.2 1030.12,-276.2 1030.12,-242.8 1030.12,-242.8 1030.12,-236.8 1036.12,-230.8 1042.12,-230.8 1042.12,-230.8 1246.41,-230.8 1246.41,-230.8 1252.41,-230.8 1258.41,-236.8 1258.41,-242.8 1258.41,-242.8 1258.41,-276.2 1258.41,-276.2 1258.41,-282.2 1252.41,-288.2 1246.41,-288.2"/>
<text xml:space="preserve" text-anchor="start" x="1080.52" y="-265.65" font-family="Helvetica,sans-Serif" font-weight="bold" font-size="13.00">load_ground_truths</text>
<polygon fill="#87ceeb" stroke="none" points="1041.64,-238 1041.64,-259.5 1246.89,-259.5 1246.89,-238 1041.64,-238"/>
<text xml:space="preserve" text-anchor="start" x="1045.64" y="-243.15" font-family="Helvetica,sans-Serif" font-size="13.00">ground_truths : List[GroundTruth]</text>
</g>
<!-- 4650097344 -->
<g id="node17" class="node">
<title>4650097344</title>
<path fill="#87ceeb" stroke="black" stroke-width="2" d="M942.04,-172.8C942.04,-172.8 828.5,-172.8 828.5,-172.8 822.5,-172.8 816.5,-166.8 816.5,-160.8 816.5,-160.8 816.5,-127.4 816.5,-127.4 816.5,-121.4 822.5,-115.4 828.5,-115.4 828.5,-115.4 942.04,-115.4 942.04,-115.4 948.04,-115.4 954.04,-121.4 954.04,-127.4 954.04,-127.4 954.04,-160.8 954.04,-160.8 954.04,-166.8 948.04,-172.8 942.04,-172.8"/>
<text xml:space="preserve" text-anchor="start" x="837.64" y="-150.25" font-family="Helvetica,sans-Serif" font-weight="bold" font-size="13.00">compute_ndcg</text>
<polygon fill="#87ceeb" stroke="none" points="828.02,-122.6 828.02,-144.1 942.52,-144.1 942.52,-122.6 828.02,-122.6"/>
<text xml:space="preserve" text-anchor="start" x="832.02" y="-127.75" font-family="Helvetica,sans-Serif" font-size="13.00">ndcg_score : float</text>
</g>
<!-- 4553652176&#45;&gt;4650097344 -->
<g id="edge22" class="edge">
<title>4553652176&#45;&gt;4650097344</title>
<path fill="none" stroke="#333333" stroke-width="2" d="M1078.91,-229.88C1043.49,-214.37 999.49,-195.11 962.39,-178.87"/>
<polygon fill="#333333" stroke="#333333" stroke-width="2" points="963.94,-175.73 953.38,-174.92 961.14,-182.14 963.94,-175.73"/>
</g>
<!-- 4650098640 -->
<g id="node18" class="node">
<title>4650098640</title>
<path fill="#87ceeb" stroke="black" stroke-width="2" d="M1205.16,-172.8C1205.16,-172.8 1029.38,-172.8 1029.38,-172.8 1023.38,-172.8 1017.38,-166.8 1017.38,-160.8 1017.38,-160.8 1017.38,-127.4 1017.38,-127.4 1017.38,-121.4 1023.38,-115.4 1029.38,-115.4 1029.38,-115.4 1205.16,-115.4 1205.16,-115.4 1211.16,-115.4 1217.16,-121.4 1217.16,-127.4 1217.16,-127.4 1217.16,-160.8 1217.16,-160.8 1217.16,-166.8 1211.16,-172.8 1205.16,-172.8"/>
<text xml:space="preserve" text-anchor="start" x="1068.14" y="-150.25" font-family="Helvetica,sans-Serif" font-weight="bold" font-size="13.00">compute_recall</text>
<polygon fill="#87ceeb" stroke="none" points="1028.89,-122.6 1028.89,-144.1 1205.64,-144.1 1205.64,-122.6 1028.89,-122.6"/>
<text xml:space="preserve" text-anchor="start" x="1032.89" y="-127.75" font-family="Helvetica,sans-Serif" font-size="13.00">recall_metrics : dict[str, float]</text>
</g>
<!-- 4553652176&#45;&gt;4650098640 -->
<g id="edge25" class="edge">
<title>4553652176&#45;&gt;4650098640</title>
<path fill="none" stroke="#333333" stroke-width="2" d="M1137.46,-229.88C1134.29,-216.59 1130.47,-200.54 1127.01,-185.99"/>
<polygon fill="#333333" stroke="#333333" stroke-width="2" points="1130.5,-185.57 1124.78,-176.65 1123.69,-187.19 1130.5,-185.57"/>
</g>
<!-- 4553652128 -->
<g id="node5" class="node">
<title>4553652128</title>
<path fill="#87ceeb" stroke="black" stroke-width="2" d="M495.91,-758.8C495.91,-758.8 378.62,-758.8 378.62,-758.8 372.62,-758.8 366.62,-752.8 366.62,-746.8 366.62,-746.8 366.62,-713.4 366.62,-713.4 366.62,-707.4 372.62,-701.4 378.62,-701.4 378.62,-701.4 495.91,-701.4 495.91,-701.4 501.91,-701.4 507.91,-707.4 507.91,-713.4 507.91,-713.4 507.91,-746.8 507.91,-746.8 507.91,-752.8 501.91,-758.8 495.91,-758.8"/>
<text xml:space="preserve" text-anchor="start" x="387.39" y="-736.25" font-family="Helvetica,sans-Serif" font-weight="bold" font-size="13.00">create_encoder</text>
<polygon fill="#87ceeb" stroke="none" points="378.14,-708.6 378.14,-730.1 496.39,-730.1 496.39,-708.6 378.14,-708.6"/>
<text xml:space="preserve" text-anchor="start" x="382.14" y="-713.75" font-family="Helvetica,sans-Serif" font-size="13.00">encoder : Encoder</text>
</g>
<!-- 4553652128&#45;&gt;4650096576 -->
<g id="edge8" class="edge">
<title>4553652128&#45;&gt;4650096576</title>
<path fill="none" stroke="#333333" stroke-width="2" d="M410.3,-700.4C396.95,-686.2 380.63,-668.84 366.15,-653.43"/>
<polygon fill="#333333" stroke="#333333" stroke-width="2" points="368.88,-651.23 359.48,-646.34 363.78,-656.02 368.88,-651.23"/>
</g>
<!-- 4553652128&#45;&gt;4650099648 -->
<g id="edge13" class="edge">
<title>4553652128&#45;&gt;4650099648</title>
<path fill="none" stroke="#333333" stroke-width="2" d="M508.87,-712.71C558.72,-699.18 625.32,-676.72 677.27,-643.4 722.6,-614.32 764.38,-568.45 791.13,-535.56"/>
<polygon fill="#333333" stroke="#333333" stroke-width="2" points="793.53,-538.16 797.05,-528.17 788.07,-533.79 793.53,-538.16"/>
</g>
<!-- 4647783360 -->
<g id="node6" class="node">
<title>4647783360</title>
<path fill="#87ceeb" stroke="black" stroke-width="2" d="M1208.91,-523.5C1208.91,-523.5 1091.62,-523.5 1091.62,-523.5 1085.62,-523.5 1079.62,-517.5 1079.62,-511.5 1079.62,-511.5 1079.62,-478.1 1079.62,-478.1 1079.62,-472.1 1085.62,-466.1 1091.62,-466.1 1091.62,-466.1 1208.91,-466.1 1208.91,-466.1 1214.91,-466.1 1220.91,-472.1 1220.91,-478.1 1220.91,-478.1 1220.91,-511.5 1220.91,-511.5 1220.91,-517.5 1214.91,-523.5 1208.91,-523.5"/>
<text xml:space="preserve" text-anchor="start" x="1095.14" y="-500.95" font-family="Helvetica,sans-Serif" font-weight="bold" font-size="13.00">create_rrf_fusion</text>
<polygon fill="#87ceeb" stroke="none" points="1091.14,-473.3 1091.14,-494.8 1209.39,-494.8 1209.39,-473.3 1091.14,-473.3"/>
<text xml:space="preserve" text-anchor="start" x="1104.14" y="-478.45" font-family="Helvetica,sans-Serif" font-size="13.00">rrf : RRFFusion</text>
</g>
<!-- 4650099792 -->
<g id="node14" class="node">
<title>4650099792</title>
<path fill="#dda0dd" stroke="black" stroke-width="2" d="M1053.41,-406.6C1053.41,-406.6 579.12,-406.6 579.12,-406.6 573.12,-406.6 567.12,-400.6 567.12,-394.6 567.12,-394.6 567.12,-358.2 567.12,-358.2 567.12,-352.2 573.12,-346.2 579.12,-346.2 579.12,-346.2 1053.41,-346.2 1053.41,-346.2 1059.41,-346.2 1065.41,-352.2 1065.41,-358.2 1065.41,-358.2 1065.41,-394.6 1065.41,-394.6 1065.41,-400.6 1059.41,-406.6 1053.41,-406.6"/>
<text xml:space="preserve" text-anchor="start" x="727.39" y="-384.05" font-family="Helvetica,sans-Serif" font-weight="bold" font-size="13.00">retrieve_queries_mapped</text>
<text xml:space="preserve" text-anchor="start" x="890.14" y="-384.05" font-family="Helvetica,sans-Serif" font-size="13.00"> ⚙</text>
<polygon fill="#dda0dd" stroke="none" points="578.64,-353.4 578.64,-374.9 1053.89,-374.9 1053.89,-353.4 578.64,-353.4"/>
<text xml:space="preserve" text-anchor="start" x="582.64" y="-358.55" font-family="Helvetica,sans-Serif" font-size="13.00">bm25_hits, fused_hits, all_query_predictions, query, reranked_hits, vector_hits</text>
</g>
<!-- 4647783360&#45;&gt;4650099792 -->
<g id="edge20" class="edge">
<title>4647783360&#45;&gt;4650099792</title>
<path fill="none" stroke="#333333" stroke-width="2" d="M1079.03,-468.97C1031.22,-452.31 967.59,-430.13 914.92,-411.78"/>
<polygon fill="#333333" stroke="#333333" stroke-width="2" points="916.28,-408.55 905.68,-408.56 913.97,-415.16 916.28,-408.55"/>
</g>
<!-- 4647784560 -->
<g id="node7" class="node">
<title>4647784560</title>
<path fill="#87ceeb" stroke="black" stroke-width="2" d="M728.54,-288.2C728.54,-288.2 522,-288.2 522,-288.2 516,-288.2 510,-282.2 510,-276.2 510,-276.2 510,-242.8 510,-242.8 510,-236.8 516,-230.8 522,-230.8 522,-230.8 728.54,-230.8 728.54,-230.8 734.54,-230.8 740.54,-236.8 740.54,-242.8 740.54,-242.8 740.54,-276.2 740.54,-276.2 740.54,-282.2 734.54,-288.2 728.54,-288.2"/>
<text xml:space="preserve" text-anchor="start" x="551.77" y="-265.65" font-family="Helvetica,sans-Serif" font-weight="bold" font-size="13.00">create_ndcg_evaluator</text>
<polygon fill="#87ceeb" stroke="none" points="521.52,-238 521.52,-259.5 729.02,-259.5 729.02,-238 521.52,-238"/>
<text xml:space="preserve" text-anchor="start" x="525.52" y="-243.15" font-family="Helvetica,sans-Serif" font-size="13.00">ndcg_evaluator : NDCGEvaluator</text>
</g>
<!-- 4647784560&#45;&gt;4650097344 -->
<g id="edge23" class="edge">
<title>4647784560&#45;&gt;4650097344</title>
<path fill="none" stroke="#333333" stroke-width="2" d="M690.88,-229.88C726.44,-214.37 770.61,-195.11 807.85,-178.87"/>
<polygon fill="#333333" stroke="#333333" stroke-width="2" points="809.14,-182.12 816.91,-174.92 806.34,-175.71 809.14,-182.12"/>
</g>
<!-- 4647794496 -->
<g id="node8" class="node">
<title>4647794496</title>
<path fill="#87ceeb" stroke="black" stroke-width="2" d="M1514.29,-288.2C1514.29,-288.2 1306.25,-288.2 1306.25,-288.2 1300.25,-288.2 1294.25,-282.2 1294.25,-276.2 1294.25,-276.2 1294.25,-242.8 1294.25,-242.8 1294.25,-236.8 1300.25,-230.8 1306.25,-230.8 1306.25,-230.8 1514.29,-230.8 1514.29,-230.8 1520.29,-230.8 1526.29,-236.8 1526.29,-242.8 1526.29,-242.8 1526.29,-276.2 1526.29,-276.2 1526.29,-282.2 1520.29,-288.2 1514.29,-288.2"/>
<text xml:space="preserve" text-anchor="start" x="1335.27" y="-265.65" font-family="Helvetica,sans-Serif" font-weight="bold" font-size="13.00">create_recall_evaluator</text>
<polygon fill="#87ceeb" stroke="none" points="1305.77,-238 1305.77,-259.5 1514.77,-259.5 1514.77,-238 1305.77,-238"/>
<text xml:space="preserve" text-anchor="start" x="1309.77" y="-243.15" font-family="Helvetica,sans-Serif" font-size="13.00">recall_evaluator : RecallEvaluator</text>
</g>
<!-- 4647794496&#45;&gt;4650098640 -->
<g id="edge27" class="edge">
<title>4647794496&#45;&gt;4650098640</title>
<path fill="none" stroke="#333333" stroke-width="2" d="M1336.33,-229.88C1295.82,-214.2 1245.4,-194.69 1203.15,-178.34"/>
<polygon fill="#333333" stroke="#333333" stroke-width="2" points="1204.59,-175.14 1194.01,-174.8 1202.07,-181.67 1204.59,-175.14"/>
</g>
<!-- 4650097824 -->
<g id="node10" class="node">
<title>4650097824</title>
<path fill="#87ceeb" stroke="black" stroke-width="2" d="M400.91,-523.5C400.91,-523.5 235.62,-523.5 235.62,-523.5 229.62,-523.5 223.62,-517.5 223.62,-511.5 223.62,-511.5 223.62,-478.1 223.62,-478.1 223.62,-472.1 229.62,-466.1 235.62,-466.1 235.62,-466.1 400.91,-466.1 400.91,-466.1 406.91,-466.1 412.91,-472.1 412.91,-478.1 412.91,-478.1 412.91,-511.5 412.91,-511.5 412.91,-517.5 406.91,-523.5 400.91,-523.5"/>
<text xml:space="preserve" text-anchor="start" x="256.77" y="-500.95" font-family="Helvetica,sans-Serif" font-weight="bold" font-size="13.00">build_vector_index</text>
<polygon fill="#87ceeb" stroke="none" points="235.14,-473.3 235.14,-494.8 401.39,-494.8 401.39,-473.3 235.14,-473.3"/>
<text xml:space="preserve" text-anchor="start" x="239.14" y="-478.45" font-family="Helvetica,sans-Serif" font-size="13.00">vector_index : VectorIndex</text>
</g>
<!-- 4650096576&#45;&gt;4650097824 -->
<g id="edge9" class="edge">
<title>4650096576&#45;&gt;4650097824</title>
<path fill="none" stroke="#333333" stroke-width="2" d="M326.44,-582.22C325.14,-568.47 323.58,-551.94 322.17,-537.04"/>
<polygon fill="#333333" stroke="#333333" stroke-width="2" points="325.69,-537.11 321.26,-527.48 318.72,-537.77 325.69,-537.11"/>
</g>
<!-- 4650097776 -->
<g id="node12" class="node">
<title>4650097776</title>
<path fill="#87ceeb" stroke="black" stroke-width="2" d="M670.04,-523.5C670.04,-523.5 460.5,-523.5 460.5,-523.5 454.5,-523.5 448.5,-517.5 448.5,-511.5 448.5,-511.5 448.5,-478.1 448.5,-478.1 448.5,-472.1 454.5,-466.1 460.5,-466.1 460.5,-466.1 670.04,-466.1 670.04,-466.1 676.04,-466.1 682.04,-472.1 682.04,-478.1 682.04,-478.1 682.04,-511.5 682.04,-511.5 682.04,-517.5 676.04,-523.5 670.04,-523.5"/>
<text xml:space="preserve" text-anchor="start" x="514.64" y="-500.95" font-family="Helvetica,sans-Serif" font-weight="bold" font-size="13.00">create_reranker</text>
<polygon fill="#87ceeb" stroke="none" points="460.02,-473.3 460.02,-494.8 670.52,-494.8 670.52,-473.3 460.02,-473.3"/>
<text xml:space="preserve" text-anchor="start" x="464.02" y="-478.45" font-family="Helvetica,sans-Serif" font-size="13.00">reranker : CrossEncoderReranker</text>
</g>
<!-- 4650096576&#45;&gt;4650097776 -->
<g id="edge10" class="edge">
<title>4650096576&#45;&gt;4650097776</title>
<path fill="none" stroke="#333333" stroke-width="2" d="M390.35,-582.07C422.61,-566.16 462.32,-546.58 495.75,-530.09"/>
<polygon fill="#333333" stroke="#333333" stroke-width="2" points="497.15,-533.3 504.57,-525.74 494.06,-527.02 497.15,-533.3"/>
</g>
<!-- 4650096576&#45;&gt;4650099792 -->
<g id="edge15" class="edge">
<title>4650096576&#45;&gt;4650099792</title>
<path fill="none" stroke="#333333" stroke-width="2" d="M263.38,-582.17C240.71,-568.24 217.88,-549.29 205.27,-525 192.9,-501.18 187.68,-484.88 205.27,-464.6 217.37,-450.65 393.75,-426.42 553.89,-407.04"/>
<polygon fill="#333333" stroke="#333333" stroke-width="2" points="553.86,-410.57 563.37,-405.9 553.02,-403.62 553.86,-410.57"/>
</g>
<!-- 4650097824&#45;&gt;4650099792 -->
<g id="edge19" class="edge">
<title>4650097824&#45;&gt;4650099792</title>
<path fill="none" stroke="#333333" stroke-width="2" d="M413.84,-468.66C419.39,-467.27 424.9,-465.91 430.27,-464.6 507.41,-445.84 593.57,-426.24 664.88,-410.39"/>
<polygon fill="#333333" stroke="#333333" stroke-width="2" points="665.59,-413.82 674.6,-408.24 664.08,-406.99 665.59,-413.82"/>
</g>
<!-- 4650098112&#45;&gt;4650099792 -->
<g id="edge17" class="edge">
<title>4650098112&#45;&gt;4650099792</title>
<path fill="none" stroke="#333333" stroke-width="2" d="M100.9,-583.77C114.14,-549.42 141.42,-492.74 185.27,-464.6 201.5,-454.19 387.39,-429.23 553.23,-408.67"/>
<polygon fill="#333333" stroke="#333333" stroke-width="2" points="553.64,-412.15 563.14,-407.45 552.78,-405.2 553.64,-412.15"/>
</g>
<!-- 4650097776&#45;&gt;4650099792 -->
<g id="edge18" class="edge">
<title>4650097776&#45;&gt;4650099792</title>
<path fill="none" stroke="#333333" stroke-width="2" d="M626.99,-465.18C661.05,-449.38 703.63,-429.63 739.78,-412.87"/>
<polygon fill="#333333" stroke="#333333" stroke-width="2" points="740.93,-416.2 748.53,-408.81 737.99,-409.85 740.93,-416.2"/>
</g>
<!-- 4650099648&#45;&gt;4650099792 -->
<g id="edge16" class="edge">
<title>4650099648&#45;&gt;4650099792</title>
<path fill="none" stroke="#333333" stroke-width="2" d="M819.98,-463.82C819.41,-450.52 818.73,-434.62 818.1,-420.1"/>
<polygon fill="#333333" stroke="#333333" stroke-width="2" points="821.61,-420.14 817.68,-410.3 814.62,-420.44 821.61,-420.14"/>
</g>
<!-- 4650093984 -->
<g id="node16" class="node">
<title>4650093984</title>
<path fill="#87ceeb" stroke="black" stroke-width="2" d="M981.79,-288.2C981.79,-288.2 788.75,-288.2 788.75,-288.2 782.75,-288.2 776.75,-282.2 776.75,-276.2 776.75,-276.2 776.75,-242.8 776.75,-242.8 776.75,-236.8 782.75,-230.8 788.75,-230.8 788.75,-230.8 981.79,-230.8 981.79,-230.8 987.79,-230.8 993.79,-236.8 993.79,-242.8 993.79,-242.8 993.79,-276.2 993.79,-276.2 993.79,-282.2 987.79,-288.2 981.79,-288.2"/>
<text xml:space="preserve" text-anchor="start" x="824.89" y="-265.65" font-family="Helvetica,sans-Serif" font-weight="bold" font-size="13.00">flatten_predictions</text>
<polygon fill="#87ceeb" stroke="none" points="788.27,-238 788.27,-259.5 982.27,-259.5 982.27,-238 788.27,-238"/>
<text xml:space="preserve" text-anchor="start" x="792.27" y="-243.15" font-family="Helvetica,sans-Serif" font-size="13.00">all_predictions : List[Prediction]</text>
</g>
<!-- 4650099792&#45;&gt;4650093984 -->
<g id="edge21" class="edge">
<title>4650099792&#45;&gt;4650093984</title>
<path fill="none" stroke="#333333" stroke-width="2" d="M834.4,-345.21C842.74,-331.33 852.73,-314.68 861.65,-299.84"/>
<polygon fill="#333333" stroke="#333333" stroke-width="2" points="864.5,-301.88 866.65,-291.5 858.5,-298.27 864.5,-301.88"/>
</g>
<!-- group_4650099792 -->
<g id="node15" class="node">
<title>group_4650099792</title>
<polygon fill="#90ee90" stroke="black" stroke-width="2" points="1044.04,-523.5 960.5,-523.5 960.5,-466.1 1044.04,-466.1 1044.04,-523.5"/>
<text xml:space="preserve" text-anchor="start" x="976.02" y="-499.95" font-family="Helvetica,sans-Serif" font-size="13.00">rerank_k</text>
<text xml:space="preserve" text-anchor="start" x="985.77" y="-478.45" font-family="Helvetica,sans-Serif" font-size="13.00">top_k</text>
</g>
<!-- group_4650099792&#45;&gt;4650099792 -->
<g id="edge32" class="edge">
<title>group_4650099792&#45;&gt;4650099792</title>
<path fill="none" stroke="#666666" stroke-width="2" d="M959.6,-467.1C934.62,-451.46 902.7,-431.49 875.34,-414.36"/>
<polygon fill="#666666" stroke="#666666" stroke-width="2" points="877.21,-411.41 866.88,-409.07 873.5,-417.34 877.21,-411.41"/>
</g>
<!-- 4650093984&#45;&gt;4650097344 -->
<g id="edge24" class="edge">
<title>4650093984&#45;&gt;4650097344</title>
<path fill="none" stroke="#333333" stroke-width="2" d="M885.27,-229.88C885.27,-216.72 885.27,-200.86 885.27,-186.43"/>
<polygon fill="#333333" stroke="#333333" stroke-width="2" points="888.77,-186.73 885.27,-176.73 881.77,-186.73 888.77,-186.73"/>
</g>
<!-- 4650093984&#45;&gt;4650098640 -->
<g id="edge26" class="edge">
<title>4650093984&#45;&gt;4650098640</title>
<path fill="none" stroke="#333333" stroke-width="2" d="M943.81,-229.88C975.27,-214.51 1014.28,-195.44 1047.33,-179.29"/>
<polygon fill="#333333" stroke="#333333" stroke-width="2" points="1048.58,-182.57 1056.03,-175.04 1045.5,-176.28 1048.58,-182.57"/>
</g>
<!-- 4650098496 -->
<g id="node19" class="node">
<title>4650098496</title>
<path fill="#87ceeb" stroke="black" stroke-width="2" d="M979.16,-57.4C979.16,-57.4 791.38,-57.4 791.38,-57.4 785.38,-57.4 779.38,-51.4 779.38,-45.4 779.38,-45.4 779.38,-12 779.38,-12 779.38,-6 785.38,0 791.38,0 791.38,0 979.16,0 979.16,0 985.16,0 991.16,-6 991.16,-12 991.16,-12 991.16,-45.4 991.16,-45.4 991.16,-51.4 985.16,-57.4 979.16,-57.4"/>
<text xml:space="preserve" text-anchor="start" x="794.89" y="-34.85" font-family="Helvetica,sans-Serif" font-weight="bold" font-size="13.00">combine_evaluation_results</text>
<polygon fill="#87ceeb" stroke="none" points="790.89,-7.2 790.89,-28.7 979.64,-28.7 979.64,-7.2 790.89,-7.2"/>
<text xml:space="preserve" text-anchor="start" x="814.77" y="-12.35" font-family="Helvetica,sans-Serif" font-size="13.00">evaluation_results : dict</text>
</g>
<!-- 4650097344&#45;&gt;4650098496 -->
<g id="edge28" class="edge">
<title>4650097344&#45;&gt;4650098496</title>
<path fill="none" stroke="#333333" stroke-width="2" d="M885.27,-114.48C885.27,-101.32 885.27,-85.46 885.27,-71.03"/>
<polygon fill="#333333" stroke="#333333" stroke-width="2" points="888.77,-71.33 885.27,-61.33 881.77,-71.33 888.77,-71.33"/>
</g>
<!-- 4650098640&#45;&gt;4650098496 -->
<g id="edge29" class="edge">
<title>4650098640&#45;&gt;4650098496</title>
<path fill="none" stroke="#333333" stroke-width="2" d="M1058.73,-114.48C1027.27,-99.11 988.26,-80.04 955.21,-63.89"/>
<polygon fill="#333333" stroke="#333333" stroke-width="2" points="957.04,-60.88 946.51,-59.64 953.96,-67.17 957.04,-60.88"/>
</g>
<!-- 4312927536 -->
<g id="node20" class="node">
<title>4312927536</title>
<polygon fill="#90ee90" stroke="black" stroke-width="2" stroke-dasharray="5,2" points="500.16,-863.5 374.38,-863.5 374.38,-827.5 500.16,-827.5 500.16,-863.5"/>
<text xml:space="preserve" text-anchor="middle" x="437.27" y="-839.9" font-family="Helvetica,sans-Serif" font-size="13.00">model_name : str</text>
</g>
<!-- 4312927536&#45;&gt;4553652128 -->
<g id="edge1" class="edge">
<title>4312927536&#45;&gt;4553652128</title>
<path fill="none" stroke="#666666" stroke-width="2" d="M437.27,-826.53C437.27,-812.06 437.27,-791.14 437.27,-772.57"/>
<polygon fill="#666666" stroke="#666666" stroke-width="2" points="440.77,-772.61 437.27,-762.61 433.77,-772.61 440.77,-772.61"/>
</g>
<!-- 4312948080 -->
<g id="node21" class="node">
<title>4312948080</title>
<polygon fill="#90ee90" stroke="black" stroke-width="2" stroke-dasharray="5,2" points="521.29,-394.4 429.25,-394.4 429.25,-358.4 521.29,-358.4 521.29,-394.4"/>
<text xml:space="preserve" text-anchor="middle" x="475.27" y="-370.8" font-family="Helvetica,sans-Serif" font-size="13.00">ndcg_k : int</text>
</g>
<!-- 4312948080&#45;&gt;4647784560 -->
<g id="edge2" class="edge">
<title>4312948080&#45;&gt;4647784560</title>
<path fill="none" stroke="#666666" stroke-width="2" d="M498.71,-357.45C519.8,-341.29 551.45,-317.05 577.81,-296.85"/>
<polygon fill="#666666" stroke="#666666" stroke-width="2" points="579.79,-299.75 585.6,-290.89 575.53,-294.19 579.79,-299.75"/>
</g>
<!-- 4312948080&#45;&gt;4650098496 -->
<g id="edge30" class="edge">
<title>4312948080&#45;&gt;4650098496</title>
<path fill="none" stroke="#666666" stroke-width="2" d="M472.37,-357.54C468.62,-328.25 465.44,-269.41 492.27,-230.8 556.36,-138.59 675.82,-86.06 766.28,-57.99"/>
<polygon fill="#666666" stroke="#666666" stroke-width="2" points="767.1,-61.4 775.66,-55.15 765.08,-54.7 767.1,-61.4"/>
</g>
<!-- 4312947504 -->
<g id="node22" class="node">
<title>4312947504</title>
<polygon fill="#90ee90" stroke="black" stroke-width="2" stroke-dasharray="5,2" points="1203.04,-631.2 1097.5,-631.2 1097.5,-595.2 1203.04,-595.2 1203.04,-631.2"/>
<text xml:space="preserve" text-anchor="middle" x="1150.27" y="-607.6" font-family="Helvetica,sans-Serif" font-size="13.00">rrf_k : int = 60</text>
</g>
<!-- 4312947504&#45;&gt;4647783360 -->
<g id="edge4" class="edge">
<title>4312947504&#45;&gt;4647783360</title>
<path fill="none" stroke="#666666" stroke-width="2" d="M1150.27,-594.27C1150.27,-579.14 1150.27,-556.89 1150.27,-537.36"/>
<polygon fill="#666666" stroke="#666666" stroke-width="2" points="1153.77,-537.43 1150.27,-527.43 1146.77,-537.43 1153.77,-537.43"/>
</g>
<!-- 4312978224 -->
<g id="node23" class="node">
<title>4312978224</title>
<polygon fill="#90ee90" stroke="black" stroke-width="2" stroke-dasharray="5,2" points="1179.29,-748.1 1039.25,-748.1 1039.25,-712.1 1179.29,-712.1 1179.29,-748.1"/>
<text xml:space="preserve" text-anchor="middle" x="1109.27" y="-724.5" font-family="Helvetica,sans-Serif" font-size="13.00">examples_path : str</text>
</g>
<!-- 4312978224&#45;&gt;4645462400 -->
<g id="edge12" class="edge">
<title>4312978224&#45;&gt;4645462400</title>
<path fill="none" stroke="#666666" stroke-width="2" d="M1083.18,-711.15C1059.48,-694.85 1023.84,-670.32 994.33,-650.02"/>
<polygon fill="#666666" stroke="#666666" stroke-width="2" points="996.48,-647.25 986.26,-644.47 992.51,-653.02 996.48,-647.25"/>
</g>
<!-- 4312978224&#45;&gt;4553652176 -->
<g id="edge5" class="edge">
<title>4312978224&#45;&gt;4553652176</title>
<path fill="none" stroke="#666666" stroke-width="2" d="M1145.32,-711.21C1170.81,-696.58 1203.5,-673.43 1221.27,-643.4 1248.37,-597.59 1235.26,-578.08 1239.27,-525 1241.29,-498.23 1245.07,-490.81 1239.27,-464.6 1225.86,-403.99 1192.52,-340.03 1169.15,-300.2"/>
<polygon fill="#666666" stroke="#666666" stroke-width="2" points="1172.23,-298.53 1164.09,-291.74 1166.21,-302.12 1172.23,-298.53"/>
</g>
<!-- 4312979248 -->
<g id="node24" class="node">
<title>4312979248</title>
<polygon fill="#90ee90" stroke="black" stroke-width="2" stroke-dasharray="5,2" points="1484.04,-394.4 1336.5,-394.4 1336.5,-358.4 1484.04,-358.4 1484.04,-394.4"/>
<text xml:space="preserve" text-anchor="middle" x="1410.27" y="-370.8" font-family="Helvetica,sans-Serif" font-size="13.00">recall_k_list : List[int]</text>
</g>
<!-- 4312979248&#45;&gt;4647794496 -->
<g id="edge3" class="edge">
<title>4312979248&#45;&gt;4647794496</title>
<path fill="none" stroke="#666666" stroke-width="2" d="M1410.27,-357.45C1410.27,-342.65 1410.27,-321.07 1410.27,-302.02"/>
<polygon fill="#666666" stroke="#666666" stroke-width="2" points="1413.77,-302.08 1410.27,-292.08 1406.77,-302.08 1413.77,-302.08"/>
</g>
<!-- 4312980016 -->
<g id="node25" class="node">
<title>4312980016</title>
<polygon fill="#90ee90" stroke="black" stroke-width="2" stroke-dasharray="5,2" points="659.04,-631.2 475.5,-631.2 475.5,-595.2 659.04,-595.2 659.04,-631.2"/>
<text xml:space="preserve" text-anchor="middle" x="567.27" y="-607.6" font-family="Helvetica,sans-Serif" font-size="13.00">reranker_model_name : str</text>
</g>
<!-- 4312980016&#45;&gt;4650097776 -->
<g id="edge11" class="edge">
<title>4312980016&#45;&gt;4650097776</title>
<path fill="none" stroke="#666666" stroke-width="2" d="M566.96,-594.27C566.7,-579.14 566.32,-556.89 565.98,-537.36"/>
<polygon fill="#666666" stroke="#666666" stroke-width="2" points="569.48,-537.37 565.81,-527.43 562.49,-537.49 569.48,-537.37"/>
</g>
</g>
</svg>
